<?xml version="1.0" encoding="utf-8"?>
<!-- Generator: Adobe Illustrator 27.0.0, SVG Export Plug-In . SVG Version: 6.00 Build 0)  -->
<svg version="1.1" id="Layer_0_xA0_Image_00000157306806358610768480000010278212164895311519_"
	 xmlns="http://www.w3.org/2000/svg" xmlns:xlink="http://www.w3.org/1999/xlink" x="0px" y="0px" viewBox="0 0 279.13 278.6"
	 style="enable-background:new 0 0 279.13 278.6;" xml:space="preserve">
<style type="text/css">
	.st0{fill:#FFFFFF;}
</style>
<path d="M5.86,139.02C5.74,65.06,65.96,4.76,140.15,4.81c73.93,0.05,134.3,59.93,134.21,134.42c-0.1,74.2-60.22,134.04-134.3,134.05
	C65.83,273.28,5.72,212.94,5.86,139.02z M54.88,45.87c1.61-0.05,2.84,1.6,2.16,2.88c-0.41,0.23-0.81,0.46-1.22,0.69
	c-2.82,1-5.25-1.35-5.86-3.55c-0.36-1.33,0.23-2.43,1.14-3.35c0.76-0.77,1.58-1.58,2.75-0.55c0.05,0.04,0.32-0.16,0.48-0.25
	c-0.24-0.4-0.41-0.88-0.75-1.17c-0.15-0.13-0.72,0.04-0.95,0.24c-1.11,1.02-2.27,2.01-3.22,3.17c-1.15,1.4-1.55,3.13-0.77,4.82
	c1.22,2.63,4.78,3.22,6.92,1.24c0.14-0.13,0.16-0.41,0.23-0.62c0.82,0.5,0.94-0.22,1.21-0.69c0.57-0.45,1.15-0.9,1.71-1.36
	c0.62-0.51,0.56-1.02,0.07-1.63c-0.55-0.69-0.98-1.47-1.56-2.34c-0.71,0.76-1.53,1.62-2.34,2.49c-0.04,0-0.08-0.01-0.11,0
	c-0.03,0.01-0.05,0.04-0.07,0.06C54.76,45.92,54.82,45.89,54.88,45.87z M79.61,23.36c-1.15,0.46-2.3,0.92-3.46,1.38
	c0.52,0.57,0.99,0.93,1.26,1.41c0.93,1.62,1.77,3.29,2.68,4.91c0.36,0.65,0.23,1.13-0.29,1.58l-0.01,0.03c0,0,0.01-0.05,0.01-0.05
	c1.18-0.51,2.36-1.02,3.39-1.46c-0.5-0.55-1.05-0.97-1.36-1.52c-0.88-1.6-1.61-3.27-2.5-4.87c-0.35-0.64-0.23-1.03,0.26-1.43l0-0.04
	L79.61,23.36z M198.1,21.87c0.06,0.01,0.11,0.03,0.17,0.04c-0.06-0.01-0.12-0.02-0.19-0.02c-1.13-0.64-2.26-1.28-3.51-1.99
	c0.7,1.93-0.51,3.13-1.08,4.43c-0.57,1.31-0.79,2.89-2.3,3.76c1.11,0.51,2.14,0.98,3,1.37c0.13-0.61,0.17-1.17,0.38-1.66
	c0.71-1.64,1.49-3.26,2.24-4.88C197.08,22.38,197.36,21.85,198.1,21.87z M67.09,40.55c1.05-0.61,2.11-1.23,2.98-1.73
	c-0.55-0.41-1.06-0.64-1.34-1.03c-1.1-1.54-2.09-3.16-3.2-4.69c-0.42-0.58-0.4-1.07-0.11-1.64c0.02-0.02,0.03-0.05,0.05-0.07
	c-0.01,0.03-0.02,0.06-0.03,0.09c-1.08,0.66-2.16,1.32-3.24,1.97c0.02,0.09,0.04,0.17,0.06,0.26c1.23,0.01,1.44,1.11,2.02,1.81
	c0.43,0.52,0.33,0.98-0.23,1.41c-0.37,0.29-0.66,0.7-0.98,1.06c-0.38,0.17-0.76,0.36-1.16,0.5c-0.32,0.12-0.7,0.31-0.99,0.23
	c-0.81-0.2-1.75-2.3-1.34-3.29c-1.2,0.93-2.21,1.72-3.32,2.58c1.42,0.18,5.44,5.24,5.5,6.82c0.93-0.73,1.81-1.42,2.49-1.96
	c-0.61-0.62-1.18-1.12-1.66-1.7c-1.29-1.58-1.28-1.6,0.21-2.94c0.09-0.08,0.16-0.17,0.25-0.26c0.3-0.18,0.61-0.36,0.9-0.55
	c1.1-0.75,1.1-0.75,1.92,0.37c0.3,0.42,0.69,0.79,0.89,1.25c0.21,0.47,0.23,1.03,0.34,1.54C67.11,40.57,67.09,40.55,67.09,40.55z
	 M102.12,18.74c-0.83-0.19-2.11-2.81-1.67-3.47c0.12-0.18,0.36-0.32,0.58-0.39c1.12-0.33,2.31-1.09,3.32,0.46
	c0.06-0.61,0.07-1.11-0.11-1.53c-0.04-0.1-0.71,0.02-1.07,0.1c-1.08,0.27-2.16,0.54-3.22,0.87c-0.95,0.3-1.88,0.69-2.77,1.02
	c0.39,0.3,0.88,0.47,0.95,0.76c0.66,2.44,2.06,4.69,2.07,7.41c1.05-0.34,2.17-0.71,3.29-1.08c-1.45-0.49-2.27-2.95-1.4-4.18
	c0.76,0.1,1.51,0.2,2.32,0.3c-0.14-0.53-0.31-1.15-0.43-1.6C103.3,17.91,102.71,18.33,102.12,18.74z M224.04,37.93
	c0.87,0.81,0.96,1.82,0.62,2.96c0.69-0.31,1.77-0.33,1.28-1.29c-0.36-0.7-1.26-1.11-1.92-1.65c-0.69-0.99-1.73-1.33-2.86-1.48
	c-0.91-0.12-1.83,0.1-2.13,0.94c-0.24,0.66-0.12,1.55,0.12,2.25c0.29,0.85,0.9,1.59,1.34,2.39c0.5,0.92,0.39,1.77-0.28,2.26
	c-0.96,0.69-1.76,0.1-2.5-0.41c-0.66-0.46-1.29-1-0.78-1.98c0.17-0.33,0.2-0.73,0.3-1.09c-0.66,0.29-1.11,0.63-1.47,1.03
	c-0.12,0.13-0.13,0.54-0.02,0.66c1.29,1.44,2.74,2.67,4.66,3.17c0.85,0.22,1.61-0.03,2.2-0.63c0.59-0.61,0.79-1.37,0.39-2.2
	c-0.22-0.47-0.43-0.94-0.66-1.4c-0.35-0.71-0.8-1.39-1.02-2.13c-0.12-0.41,0.02-1.09,0.31-1.37c0.29-0.28,0.92-0.26,1.4-0.27
	C223.35,37.67,223.69,37.84,224.04,37.93z M224.55,49.66c-0.82-0.57-0.91-1.3-0.51-2.18c0.1-0.21-0.02-0.53-0.04-0.79
	c-0.45,0.43-1.06,0.8-1.3,1.33c-0.19,0.4,1.22,1.52,1.87,1.62c0.14,1.24,1.22,1.44,2.08,1.84c1.31,0.6,2.23,0.49,2.97-0.29
	c0.6-0.63,0.6-1.91,0.05-3.03c-0.44-0.89-0.87-1.8-1.2-2.73c-0.32-0.91,0.2-1.54,1.16-1.57c1.65-0.05,2.67,1.24,2.26,2.84
	c-0.05,0.18,0.05,0.4,0.07,0.6c0.38-0.18,0.8-0.32,1.12-0.57c0.15-0.12,0.25-0.57,0.15-0.69c-1.17-1.41-2.38-2.83-4.21-3.39
	c-0.87-0.26-1.8-0.37-2.53,0.51c-0.74,0.89-0.52,1.78-0.1,2.69c0.4,0.87,0.82,1.72,1.25,2.57c0.35,0.7,0.29,1.43-0.35,1.81
	c-0.44,0.26-1.12,0.24-1.66,0.14C225.24,50.3,224.91,49.91,224.55,49.66z M207.45,36.78l0.01-0.07c0,0,0.02,0.05,0.02,0.05
	c1.82,1.27,3.65,2.55,5.47,3.83c1.09,0.77,1.87,0.37,2.07-0.88c-0.74,0.08-1.66,0.47-2.3,0.2c-2.26-0.94-2.37-1.54-1.01-3.55
	c0.04-0.07,0.08-0.14,0.15-0.19c0.37-0.3,0.86-0.9,1.1-0.82c0.55,0.2,1.03,0.69,1.44,1.15c0.16,0.17,0.07,0.57,0.1,0.86
	c0.08,0.03,0.17,0.07,0.25,0.1c0.39-0.57,0.77-1.14,1.29-1.91c-1.24,0.36-2.32,0.07-2.76-0.65c-0.5-0.8,0.34-1.19,0.62-1.74
	c0.16-0.32,0.37-0.62,0.6-0.89c0.14-0.16,0.47-0.38,0.57-0.33c0.79,0.45,1.6,0.89,2.28,1.48c0.22,0.19,0.07,0.79,0.14,1.19
	c0.04,0.21,0.2,0.4,0.31,0.59c0.33-0.28,0.71-0.52,0.94-0.86c0.08-0.12-0.18-0.59-0.39-0.74c-2.04-1.42-4.1-2.81-6.15-4.2
	c0.58,0.82,0.21,1.46-0.2,2.11c-0.92,1.44-1.86,2.88-2.77,4.33C208.79,36.48,208.28,36.91,207.45,36.78z M45.04,48.28
	c-0.56,0.56-1.11,1.12-1.67,1.68c-0.04,0-0.08-0.01-0.12,0c-0.03,0.01-0.04,0.05-0.06,0.08c0.05-0.03,0.1-0.07,0.16-0.1
	c0.51,0.15,1.13,0.17,1.5,0.48c1.06,0.91,2.04,1.91,3,2.92c1.27,1.34,1.18,2.6-0.21,4.09c-1.18,1.27-2.42,1.35-3.78,0.21
	c-1.04-0.87-2-1.82-3.04-2.68c-0.57-0.47-0.76-1-0.61-1.68c0.03-0.02,0.05-0.04,0.08-0.07c-0.02,0.03-0.04,0.06-0.06,0.09
	c-0.98,1.03-1.95,2.06-2.93,3.09c1.09-0.24,1.11-0.26,1.86,0.37c0.92,0.76,1.8,1.56,2.72,2.33c1.43,1.2,2.93,1.37,4.36,0.33
	c0.82-0.59,1.59-1.33,2.19-2.14c1.42-1.94,1.24-3.51-0.45-5.21c-0.81-0.82-1.68-1.58-2.44-2.45c-0.3-0.34-0.35-0.89-0.52-1.35
	c0.02-0.07,0.05-0.13,0.07-0.2C45.08,48.14,45.06,48.21,45.04,48.28z M87.51,28.85c-0.36-0.14-0.92-0.17-1.06-0.43
	c-0.85-1.64-1.6-3.33-2.38-5.01c0.07-0.07,0.14-0.13,0.2-0.2c0.37,0.1,0.75,0.15,1.1,0.29c2.31,0.97,4.61,1.96,6.93,2.91
	c0.28,0.12,0.65,0.02,0.98,0.02c-0.02-0.3,0.02-0.61-0.08-0.88c-0.43-1.15-0.97-2.27-1.36-3.44c-0.39-1.18-0.66-2.41-0.98-3.62
	c0,0-0.02,0.02-0.02,0.02c0.17-0.16,0.33-0.32,0.5-0.48l0,0.02c-0.81,0.25-1.62,0.5-2.35,0.72c0.43,0.53,0.84,0.9,1.06,1.35
	c0.48,1,0.87,2.05,1.27,3.09c0.07,0.19,0.02,0.43,0.02,0.64c-0.23-0.03-0.47-0.01-0.67-0.09c-1.7-0.68-3.44-1.28-5.07-2.11
	c-1.6-0.81-2.84-0.29-3.91,0.44c0.44,0.43,0.98,0.75,1.23,1.22c0.82,1.54,1.57,3.13,2.28,4.73c0.25,0.56,0.29,1.2,0.44,1.88
	c0.53-0.31,1.19-0.71,1.86-1.11l0.03-0.03L87.51,28.85z M166.4,11.28c0,0,0.03,0.02,0.03,0.02c-1.13-0.27-2.25-0.54-3.29-0.78
	c0.08,0.7,0.25,1.21,0.18,1.67c-0.29,1.81-0.62,3.62-1,5.41c-0.11,0.53-0.47,1.01-0.73,1.54c1.16,0.24,2.39,0.58,3.65,0.73
	c1.06,0.13,2.16,0.13,3.22,0.01c0.88-0.09,1.53-0.68,1.74-1.59c0.19-0.83-0.15-1.48-0.79-1.99c-0.2-0.17-0.4-0.35-0.59-0.52
	c0.26-0.13,0.56-0.23,0.78-0.41c0.46-0.39,1.14-0.77,1.24-1.25c0.1-0.48-0.25-1.26-0.65-1.61C169.13,11.57,167.8,11.26,166.4,11.28z
	 M129.25,9.64c-0.02-0.16-0.06-0.45-0.07-0.45c-0.6,0.03-1.19,0.11-1.79,0.13c-0.69,0.02-1.05,0.31-1.28,0.99
	c-0.51,1.5-1.13,2.97-1.71,4.45c-0.11,0.28-0.29,0.53-0.44,0.79c-0.26-0.21-0.59-0.38-0.77-0.64c-0.93-1.29-1.79-2.62-2.74-3.9
	c-0.23-0.31-0.69-0.63-1.03-0.62c-0.81,0.02-1.61,0.23-2.27,0.34c0.25,0.71,0.55,1.33,0.69,1.98c0.32,1.52,0.52,3.06,0.85,4.58
	c0.18,0.82,0.2,1.52-0.52,2.13c0.72-0.14,1.44-0.27,1.85-0.35c-0.49-2.16-1.08-4.18-1.06-6.33c0,0-0.02,0.02-0.02,0.02
	c0.23,0.14,0.55,0.21,0.69,0.42c1.1,1.56,2.15,3.16,3.24,4.72c0.17,0.24,0.48,0.55,0.69,0.53c0.22-0.02,0.49-0.38,0.59-0.64
	c0.3-0.78,0.51-1.59,0.79-2.38c0.51-1.38,1.05-2.76,1.58-4.13c0.1,0.03,0.2,0.05,0.3,0.08c0.19,1.65,0.34,3.31,0.58,4.96
	c0.1,0.69,0.01,1.25-0.52,1.72l-0.02-0.02c1.18,0,2.35,0,3.71,0c-0.42-0.54-0.85-0.84-0.88-1.18c-0.25-2.25-0.42-4.52-0.59-6.78
	c-0.01-0.14,0.12-0.29,0.19-0.43L129.25,9.64z M260.36,141.35c-0.15-8.43-0.35-14.59-1.49-20.65c-0.91-4.86-1.82-9.74-3.1-14.51
	c-1.44-5.39-3.43-10.62-5.69-15.73c-3.81-8.61-8.62-16.61-14.21-24.16c-0.76-1.03-1.54-1.14-2.65-0.88
	c-4.62,1.09-9.25,2.15-13.88,3.18c-4.28,0.96-8.58,1.86-12.86,2.82c-4.28,0.96-8.55,1.98-12.83,2.95c-4.59,1.03-9.2,2.01-13.79,3.04
	c-4.55,1.02-9.1,2.1-13.65,3.12c-3.27,0.74-6.56,1.4-9.83,2.14c-5.64,1.28-11.27,2.6-16.92,3.88c-3.27,0.74-6.55,1.4-9.82,2.14
	c-5.53,1.24-11.04,2.52-16.57,3.77c-3.43,0.78-6.86,1.52-10.28,2.3c-4.63,1.05-9.26,2.12-13.89,3.16c-3.19,0.72-6.39,1.39-9.58,2.11
	c-3.5,0.79-6.99,1.64-10.5,2.42c-5.37,1.2-10.76,2.36-16.13,3.56c-4.56,1.02-9.1,2.1-13.65,3.13c-5.18,1.17-10.36,2.29-15.53,3.48
	c-0.37,0.08-0.81,0.53-0.92,0.9c-0.33,1.15-0.58,2.33-0.73,3.51c-0.57,4.55-1.19,9.11-1.61,13.68c-0.96,10.3-0.13,20.53,1.68,30.68
	c1.02,5.74,2.56,11.36,4.49,16.87c2.12,6.07,4.69,11.94,7.73,17.61c3.21,5.99,6.85,11.7,11.09,16.99c2.98,3.73,6.29,7.2,9.48,10.75
	c0.29,0.32,0.91,0.64,1.28,0.55c4.25-1.08,8.49-2.22,12.73-3.37c3.81-1.03,7.62-2.09,11.43-3.11c3.58-0.96,7.18-1.85,10.76-2.82
	c4.81-1.29,9.62-2.63,14.43-3.94c2.7-0.73,5.4-1.43,8.1-2.15c3.85-1.04,7.7-2.09,11.55-3.13c3.54-0.95,7.09-1.88,10.64-2.83
	c3.93-1.05,7.85-2.13,11.78-3.18c2.66-0.71,5.32-1.4,7.98-2.12c2.93-0.79,5.84-1.62,8.77-2.4c4.47-1.2,8.95-2.36,13.42-3.56
	c3.81-1.02,7.61-2.1,11.43-3.12c4.51-1.21,9.03-2.37,13.53-3.58c5.35-1.44,10.69-2.93,16.05-4.36c5.36-1.43,10.73-2.8,16.08-4.24
	c6.2-1.67,12.37-3.47,18.6-5.02c2.09-0.52,3.33-1.22,3.67-3.56c0.59-3.98,1.77-7.88,2.25-11.87
	C259.84,150.27,260.1,144.67,260.36,141.35z M140.08,259.34c2.95-0.13,5.92-0.12,8.86-0.43c5.19-0.56,10.4-1.11,15.52-2.07
	c4.33-0.81,8.64-1.95,12.81-3.39c5.11-1.76,10.12-3.82,15.05-6.04c5.66-2.55,10.99-5.76,16.09-9.32c8.76-6.1,16.73-13.11,23.5-21.39
	c3.12-3.82,6.13-7.74,8.91-11.81c2.17-3.17,4.01-6.58,5.82-9.98c1.6-3.02,2.97-6.17,4.42-9.27c0.13-0.27,0.12-0.61,0.17-0.91
	c-0.26-0.02-0.54-0.12-0.77-0.06c-5.73,1.52-11.46,3.05-17.19,4.6c-6.23,1.68-12.44,3.41-18.68,5.08
	c-7.77,2.08-15.56,4.11-23.33,6.19c-6.23,1.67-12.45,3.4-18.68,5.09c-4.84,1.31-9.7,2.58-14.55,3.87
	c-7.08,1.89-14.16,3.77-21.24,5.67c-5.62,1.5-11.23,3.02-16.85,4.54c-4.73,1.28-9.45,2.59-14.18,3.86
	c-3.85,1.03-7.71,2.01-11.55,3.04c-3.65,0.98-7.28,2.04-10.93,3.02c-4.92,1.32-9.86,2.59-14.78,3.91c-0.6,0.16-1.16,0.44-1.73,0.67
	c0.48,0.45,0.93,0.96,1.46,1.34c6.05,4.39,12.33,8.39,19.14,11.55c4.65,2.16,9.33,4.2,14.15,5.94c5.53,1.99,11.2,3.4,16.98,4.39
	C125.63,258.65,132.82,259.43,140.08,259.34z M134,69.64c0.3-0.23,0.42-0.28,0.48-0.37c0.15-0.24,0.27-0.49,0.39-0.74
	c3.02-6.58,7.53-11.83,13.79-15.54c4.62-2.74,9.64-4.1,14.96-4.47c5.82-0.41,11.33,0.97,16.68,3.07c5.32,2.09,10.02,5.14,13.98,9.31
	c0.26,0.27,0.86,0.4,1.24,0.33c3.16-0.65,6.31-1.35,9.46-2.06c6.41-1.45,12.82-2.91,19.22-4.38c0.36-0.08,0.69-0.27,1.03-0.41
	c-0.2-0.33-0.34-0.73-0.62-0.97c-3.96-3.44-7.8-7.02-11.93-10.24c-7.2-5.63-15.08-10.17-23.43-13.92c-5.9-2.65-11.96-4.8-18.2-6.47
	c-4.81-1.29-9.68-2.38-14.66-2.84c-4.89-0.45-9.78-0.97-14.68-1.13c-6.03-0.2-12.04,0.29-18.04,1.09
	c-6.66,0.89-13.21,2.28-19.58,4.33c-4.46,1.43-8.8,3.26-13.14,5.05c-6.38,2.63-12.31,6.1-18.03,9.94
	c-4.76,3.2-9.24,6.75-13.51,10.59c-6.3,5.66-11.92,11.93-16.89,18.77c-4.92,6.78-9.11,14-12.45,21.68
	c-1.13,2.59-2.12,5.24-3.12,7.88c-0.34,0.9-0.13,1.09,0.77,0.89c5.75-1.3,11.5-2.6,17.25-3.91c4.58-1.04,9.16-2.12,13.75-3.15
	c5.83-1.31,11.66-2.62,17.51-3.85c1.1-0.23,1.58-0.81,1.92-1.76c1.9-5.37,4.93-10.05,8.89-14.12c3.92-4.02,8.41-7.02,14.14-7.8
	c3.99-0.54,7.94-0.03,11.73,1.03c5.51,1.54,10.89,3.5,16.34,5.27c1.16,0.38,1.29,0.23,1.15-1.01c-0.62-5.39-0.65-10.75,1.1-15.98
	c0.09-0.28,0.04-0.61,0.06-0.92c-0.27,0.09-0.57,0.15-0.82,0.29c-2.45,1.29-4.82,2.78-7.36,3.86c-6.02,2.55-12.37,3.21-18.79,2.27
	c-5.87-0.87-11.34-3.02-16.38-6.23c-4.22-2.69-7.93-5.95-11.3-9.63c-1.41-1.54-1.47-1.52,0.37-2.26c5.08-2.05,10.15-4.16,15.28-6.09
	c4.37-1.64,8.87-2.82,13.57-3.16c6.35-0.46,12.19,1.01,17.51,4.45c4.12,2.67,7.51,6.12,10.45,10.03c0.61,0.81,0.74,0.79,1.41,0.04
	c0.82-0.92,1.65-1.83,2.55-2.67c1.48-1.37,1.5-1.34,2.67,0.22c0.17,0.22,0.32,0.46,0.48,0.68c0.72,1.03,0.72,1.15-0.27,1.94
	c-3.21,2.56-5.11,5.93-6.18,9.82c-1.05,3.82-1.11,7.73-0.92,11.65C133.88,68.51,133.93,68.98,134,69.64z M104.96,66.9
	c-4.06-0.08-7.84,0.86-11.18,3.23c-5.53,3.93-9.56,9.08-12.2,15.32c-0.16,0.39-0.26,0.8-0.39,1.2c0.47-0.02,0.93-0.04,1.4-0.07
	c0.04,0,0.08-0.01,0.12-0.02c6.2-1.37,12.4-2.72,18.58-4.12c6.34-1.44,12.67-2.94,19.01-4.38c5.53-1.25,11.06-2.45,16.59-3.68
	c3.7-0.82,7.4-1.66,11.1-2.49c3.31-0.74,6.63-1.46,9.94-2.21c3.58-0.81,7.15-1.66,10.73-2.47c3.23-0.73,6.47-1.42,9.7-2.15
	c3.54-0.8,7.08-1.61,10.62-2.43c0.33-0.08,0.64-0.25,0.96-0.38c-0.2-0.27-0.35-0.6-0.6-0.82c-4.61-4.02-10.02-6.55-15.86-8.03
	c-4.92-1.25-9.95-1.39-14.96-0.19c-4.27,1.03-8.1,2.94-11.48,5.69c-3.73,3.04-6.55,6.81-8.53,11.22c-0.31,0.68-0.85,1.34-1.45,1.81
	c-2.77,2.18-5.92,1.92-9.02,1.04c-3.6-1.02-7.15-2.24-10.72-3.38C113.29,68.33,109.27,66.98,104.96,66.9z M132.23,49.53
	c-0.05-0.11-0.09-0.21-0.14-0.32c-0.46-0.11-0.91-0.25-1.38-0.32c-3.6-0.51-7.19-1.07-10.8-1.5c-6.38-0.77-12.77-1.49-19.17-2.18
	c-0.93-0.1-1.15-0.52-1.06-1.33c0.1-0.94,0.8-0.76,1.36-0.7c4.25,0.45,8.5,0.87,12.73,1.42c5.82,0.75,11.63,1.62,17.44,2.43
	c0.24,0.03,0.5-0.04,0.75-0.06c-0.1-0.2-0.17-0.44-0.32-0.6c-1.68-1.81-3.29-3.7-5.1-5.38c-2.59-2.4-5.54-4.35-8.85-5.56
	c-3.59-1.31-7.35-1.84-11.19-1.56c-5.92,0.44-11.48,2.27-16.95,4.42c-3.08,1.21-6.12,2.5-9.2,3.72c-1.3,0.51-1.38,0.65-0.44,1.63
	c3.72,3.88,7.94,7.13,12.73,9.59c4.96,2.55,10.22,4.05,15.82,4.28c3.7,0.15,7.37-0.11,10.89-1.26c2.49-0.81,4.93-1.84,7.25-3.04
	C128.58,52.18,130.36,50.77,132.23,49.53z M113.32,257.87c0.28,0.67,0.78,1.27,0.7,1.78c-0.34,2.24-0.84,4.46-1.3,6.68
	c-0.21,1.02-0.3,2.17-1.91,2.09c0.04,0.1,0.08,0.2,0.12,0.3c1.72,0.33,3.45,0.66,5.32,1.02c-0.42-0.65-0.92-1.05-0.91-1.45
	c0.02-0.99,0.23-1.98,0.43-2.95c0.06-0.3,0.37-0.54,0.56-0.81c0.25,0.23,0.6,0.41,0.74,0.7c0.44,0.89,0.82,1.81,1.18,2.74
	c0.9,2.31,2.88,3.4,4.92,2.75c-0.49-0.53-1.1-1.01-1.47-1.63c-0.61-1.02-1.08-2.12-1.58-3.2c-0.54-1.15-0.52-1.15,0.65-1.6
	c1.15-0.43,1.75-1.24,1.79-2.43c0.03-1.14-0.52-1.92-1.56-2.29c-0.97-0.35-1.96-0.64-2.97-0.85
	C116.41,258.38,114.78,258.13,113.32,257.87z M95.62,264.25c0.34,0.31,0.45,0.5,0.61,0.55c2.18,0.65,4.33,1.38,6.54,1.88
	c3.78,0.85,7-1.47,7.41-5.19c0.25-2.28-1.17-4.32-3.71-5.19c-1.92-0.66-3.87-1.25-5.8-1.85c-0.45-0.14-0.93-0.22-1.6-0.38
	c1.05,1.23,1.07,1.23,0.62,2.6c-0.64,1.97-1.37,3.91-1.94,5.9C97.45,263.6,97.19,264.48,95.62,264.25z M174.15,259.55
	c0,3.23,1.85,5.56,4.68,5.77c2.58,0.2,4.89-0.59,6.86-2.27c1.68-1.44,2.27-3.86,1.52-5.89c-1-2.7-2.61-3.96-5.21-3.91
	c-0.98,0.02-2,0.16-2.94,0.46C176.4,254.56,173.99,256.51,174.15,259.55z M159.23,270.16c0.01-0.06,0.03-0.13,0.04-0.19
	c-0.61-0.28-1.33-0.44-1.81-0.87c-1.47-1.33-2.86-2.76-4.23-4.19c-0.19-0.2-0.25-0.83-0.09-1c1.39-1.48,2.16-3.53,4.2-4.41
	c-0.03-0.08-0.07-0.16-0.1-0.24c-1.15,0.14-2.3,0.29-3.73,0.46c1.21,0.66,0.83,1.26,0.29,1.9c-0.77,0.91-1.5,1.86-2.27,2.77
	c-0.26,0.31-0.58,0.57-1.06,1.04c-0.14-1.29-0.2-2.27-0.35-3.25c-0.13-0.85-0.03-1.56,0.96-1.96c-0.07-0.07-0.13-0.14-0.2-0.21
	c-1.54,0.1-3.08,0.2-4.63,0.3c-0.04,0.1-0.08,0.21-0.11,0.31c1.23,0.24,1.34,1.06,1.36,2.06c0.03,1.75,0.22,3.5,0.33,5.26
	c0.08,1.23,0.64,2.61-1.18,3.3c0.08,0.07,0.15,0.14,0.23,0.21c1.7-0.15,3.4-0.3,5.1-0.45c0.04-0.09,0.09-0.19,0.13-0.28
	c-1.25-0.16-1.39-0.95-1.35-1.9c0.02-0.51-0.12-1.03-0.15-1.55c-0.02-0.37,0.02-0.75,0.03-1.13c0.34,0.23,0.72,0.42,1,0.71
	c1,1.03,1.93,2.12,2.95,3.13c0.31,0.31,0.8,0.62,1.2,0.6C156.95,270.54,158.09,270.32,159.23,270.16z M135.37,271.42
	c-0.27-0.48-0.85-1.06-0.86-1.65c-0.04-1.87,0.12-3.74,0.22-5.61c0.01-0.2,0.18-0.39,0.27-0.58c0.19,0.12,0.42,0.21,0.56,0.37
	c0.69,0.77,1.33,1.58,2.03,2.35c1.5,1.65,3,3.3,4.54,4.9c0.24,0.25,0.75,0.3,1.14,0.32c0.08,0.01,0.28-0.51,0.28-0.79
	c-0.04-2.11-0.14-4.23-0.19-6.34c-0.03-1.37-0.71-2.91,1.13-3.87c-1.33,0-2.46,0-3.59,0c0.73,0.57,1.35,1.05,1.29,2.11
	c-0.08,1.31,0.03,2.63,0.02,3.95c0,0.29-0.15,0.57-0.23,0.86c-0.21-0.16-0.46-0.28-0.63-0.47c-1.68-1.86-3.36-3.73-5.01-5.62
	c-0.84-0.96-2.5-1.3-3.86-0.63c1.16,0.28,1.15,1.12,1.1,1.99c-0.12,2.07-0.26,4.14-0.31,6.21c-0.03,1.07,0.05,2.1-1.53,2.21
	c0.05,0.1,0.09,0.2,0.14,0.29C133.12,271.42,134.34,271.42,135.37,271.42z M204.8,254.83c0.03-0.16,0.06-0.33,0.1-0.49
	c-1.44,0.54-1.49-0.19-1.62-1.12c-0.17-1.21,0.1-2.02,1.31-2.43c0.33-0.11,0.62-0.35,0.94-0.52c1.03-0.57,1.26-0.44,2.63,0.74
	c0.78,0.67,0.13,1.08-0.08,1.61c-0.02,0.04,0.07,0.12,0.18,0.29c1.51-0.94,3.03-1.88,4.75-2.95c-2.03-0.18-2.04-0.17-3.05-0.91
	c-2.27-1.67-4.52-3.38-6.8-5.04c-0.32-0.23-0.77-0.29-1.16-0.43c-0.14,0.42-0.41,0.85-0.39,1.27c0.08,1.47,0.37,2.94,0.36,4.4
	c-0.02,2.38,1.06,4.86-0.42,7.29C202.64,255.98,203.72,255.4,204.8,254.83z M229.21,222.35c1.63-0.07,1.65-0.04,2.04,1.46
	c0.16,0.62,0.32,1.23,0.5,1.85c0.26,0.91,0.1,1.12-0.8,0.97c-0.63-0.11-1.26-0.22-1.88-0.37c-0.5-0.12-1.14-0.14-1.45-0.46
	c-0.28-0.28-0.19-0.92-0.29-1.5c-1.35,1.27-2.66,2.5-3.97,3.73c0.02,0.11,0.04,0.22,0.06,0.32c1.54-1.01,2.92-0.07,4.36,0.13
	c0.67,0.09,1.31,0.38,1.98,0.45c1.24,0.13,1.99,0.97,2.75,1.77c0.74,0.78,1.92,1.44,1.02,2.8c1.3-1.24,2.6-2.49,3.94-3.78
	c-0.62,0-1.33,0.22-1.63-0.04c-1.21-1.05-2.77-1.93-3.06-3.67c-0.35-2.09-1.71-4.04-1.01-6.37
	C230.95,220.51,230.14,221.37,229.21,222.35z M41.02,64.05c0.11-1.82-0.75-3.2-2.35-4.04c-1.57-0.83-3.11-0.49-4.49,0.56
	c-1.84,1.4-3.04,3.27-3.63,5.47c-0.41,1.51-0.01,2.92,1.2,4.04c1.22,1.13,2.63,1.52,4.2,1.05C38.43,70.37,41.19,66.39,41.02,64.05z
	 M200.41,256.12c-0.57,0.39-1.13,0.82-1.73,1.16c-1.56,0.89-3.15,1.32-4.86,0.34c-1.98-1.14-3.39-4.2-2.82-6.38
	c0.38-1.42,1.4-2.28,2.72-2.81c1.06-0.42,1.47,0.48,2.04,1.05c0.03,0.03,0.06,0.06,0.09,0.08c0.17,0.07,0.35,0.13,0.52,0.19
	c0.04-0.18,0.14-0.36,0.11-0.53c-0.09-0.51-0.23-1.01-0.36-1.51c-0.14-0.52-0.46-0.75-0.98-0.48c-1.58,0.83-3.33,1.44-4.68,2.54
	c-3.37,2.75-2.56,8.05,1.41,9.59c2.08,0.81,4.18,0.3,6.09-0.77C198.98,258.01,199.98,257.37,200.41,256.12z M228.43,234.23
	c0.05,0.46,0.01,0.78,0.12,1.04c0.6,1.43,0.1,2.44-1.14,3.21c-0.13,0.08-0.23,0.22-0.35,0.33c-0.68,0.67-1.22,0.64-1.84-0.15
	c-1.35-1.72-2.78-3.39-4.19-5.05c-0.67-0.79-1.43-1.51-0.59-2.72c-0.09-0.02-0.18-0.05-0.28-0.07c-1.25,1.04-2.49,2.07-3.74,3.11
	c0.02,0.09,0.05,0.19,0.07,0.28c0.92-0.33,1.53-0.04,2.07,0.69c1.2,1.63,2.47,3.22,3.76,4.79c0.73,0.88,1.66,1.66,0.66,3.01
	c0.48-0.2,0.81-0.39,1.1-0.63c1.57-1.29,3.13-2.58,4.69-3.88c2.01-1.68,2.01-2.01,0.02-3.8
	C228.77,234.35,228.72,234.35,228.43,234.23z M208.19,239.81c0.67,0.46,1.42,0.76,1.82,1.31c1.26,1.73,2.37,3.58,3.58,5.35
	c0.58,0.84,1.18,1.62,0.19,2.68c0.3-0.03,0.44,0,0.52-0.05c2.36-1.62,4.72-3.24,7.05-4.89c0.17-0.12,0.3-0.55,0.22-0.7
	c-0.41-0.73-0.89-1.42-1.35-2.13c-0.08,0.04-0.17,0.08-0.25,0.12c-0.02,0.22-0.11,0.47-0.05,0.67c0.63,1.83-0.36,2.82-1.81,3.59
	c-0.07,0.04-0.14,0.08-0.2,0.13c-0.55,0.52-0.95,0.35-1.35-0.22c-1.26-1.83-2.56-3.64-3.83-5.47c-0.32-0.46-0.77-0.89-0.89-1.39
	c-0.11-0.45,0.15-0.99,0.29-1.69C210.66,238.11,209.35,239.01,208.19,239.81z M165.24,268.82c0.06,0.06,0.13,0.13,0.19,0.19
	c0.53-0.07,1.06-0.09,1.58-0.21c1.79-0.4,3.56-0.87,5.35-1.23c2.2-0.44,2.3-0.54,1.75-2.72c-0.05-0.21-0.21-0.39-0.31-0.58
	c-0.14,0.2-0.39,0.38-0.41,0.59c-0.16,1.53-0.99,2.33-2.51,2.45c-0.16,0.01-0.31,0.07-0.46,0.12c-0.86,0.33-1.26-0.05-1.44-0.87
	c-0.53-2.45-1.09-4.9-1.61-7.35c-0.07-0.34-0.09-0.73,0.01-1.05c0.11-0.35,0.39-0.66,0.6-0.98c-0.45,0.09-0.9,0.19-1.35,0.28
	c-0.59,0.12-1.18,0.22-1.76,0.35c-0.5,0.11-1,0.27-1.31,0.35c0.44,0.57,1.03,1.01,1.17,1.57c0.51,2.05,0.89,4.13,1.3,6.2
	C166.21,266.98,166.73,268.1,165.24,268.82z M198.92,31.86c-0.5-1.11,1.22-5.14,2.51-6.16c0.19,0.51,0.4,0.97,0.54,1.46
	c0.67,2.25,1.31,4.52,1.99,6.76c0.12,0.39,0.41,0.73,0.63,1.09c0.3-0.28,0.68-0.51,0.89-0.84c1.04-1.65,2.06-3.31,3.03-5
	c0.37-0.64,0.74-1.11,1.59-1c-0.71-0.42-1.42-0.84-2.09-1.24c-0.09,2.12-1.54,3.45-2.58,5.33c-0.72-2.34-1.39-4.34-1.94-6.37
	c-0.5-1.82-0.51-2.08-3.24-2.96c0.77,0.5,0.6,1.06,0.27,1.69c-0.83,1.58-1.6,3.21-2.45,4.78c-0.28,0.51-0.75,0.91-1.17,1.38
	C197.4,31.04,198.06,31.4,198.92,31.86z M129.96,271.34c0.05-0.1,0.1-0.2,0.15-0.31c-1.15-0.29-1.38-0.98-1.23-2.07
	c0.28-1.97,0.38-3.97,0.53-5.95c0.08-1.06-0.28-2.32,1.46-2.57c-1.68-0.31-3.24-0.5-4.8-0.67c-0.09-0.01-0.28,0.12-0.27,0.16
	c0.02,0.13,0.08,0.34,0.17,0.37c1,0.33,0.85,1.08,0.76,1.86c-0.21,1.78-0.39,3.57-0.57,5.35c-0.07,0.67,0.04,1.42-0.23,2
	c-0.24,0.52-0.88,0.85-1.43,1.33C126.36,271.02,128.16,271.18,129.96,271.34z M173.6,12.74c0,0.71,0.09,1.29-0.02,1.83
	c-0.27,1.41-0.69,2.79-0.93,4.2c-0.27,1.53,0.43,2.67,1.82,3.28c0.94,0.42,1.94,0.72,2.94,0.97c1.38,0.35,2.83-0.19,3.47-1.48
	c0.72-1.45,1.27-3,1.79-4.54c0.23-0.68,0.53-1.04,1.29-1.14c-0.77-0.25-1.54-0.5-2.38-0.77c0.13,0.43,0.36,0.77,0.28,1
	c-0.58,1.78-1.12,3.58-1.87,5.28c-0.49,1.12-1.77,1.46-3,1.09c-1.61-0.48-2.38-1.27-2.18-2.65c0.24-1.61,0.69-3.18,1.14-4.75
	c0.14-0.51,0.54-0.94,0.86-1.46C175.77,13.33,174.66,13.03,173.6,12.74z M24.27,94.79c-0.53-0.11-1.08-0.05-1.31-0.29
	c-0.45-0.49-1.04-1.19-0.98-1.73c0.1-0.86,0.55-1.81,1.14-2.45c0.38-0.41,1.28-0.44,1.95-0.44c0.28,0,0.55,0.54,0.89,0.9
	c0.55-1.14,1.16-2.41,1.69-3.51c-0.9,0.12-1.8,0.3-2.71,0.35c-2.11,0.1-4.23,0.11-6.35,0.19c-1.22,0.04-1.42,0.46-0.74,1.49
	c0.31,0.46,0.66,0.9,0.99,1.34c1.51,2.02,3.02,4.03,4.56,6.08C23.68,96.1,24,95.4,24.27,94.79z M183.98,22.83
	c-0.1,0-0.21-0.01-0.31-0.01c-0.22,0.37-0.52,0.72-0.65,1.12c-0.08,0.25-0.02,0.74,0.15,0.85c1.52,1.01,3.17,1.68,5.05,1.43
	c1.8-0.24,2.58-2.03,1.52-3.49c-0.35-0.48-0.8-0.88-1.21-1.31c-0.36-0.37-0.82-0.68-1.06-1.12c-0.24-0.44-0.47-1.05-0.36-1.5
	c0.17-0.68,0.83-0.89,1.54-0.87c1.3,0.03,1.87,0.55,2.05,1.89c0.03,0.2,0.18,0.38,0.28,0.57c0.31-0.35,0.66-0.68,0.91-1.07
	c0.06-0.09-0.17-0.49-0.36-0.59c-0.83-0.46-1.66-1-2.56-1.23c-0.86-0.22-1.84-0.24-2.72-0.1c-1.43,0.24-2.05,2.03-1.15,3.22
	c0.57,0.75,1.35,1.34,2,2.04c0.54,0.58,1.19,1.15,0.76,2.08c-0.37,0.8-1.27,1.09-2.4,0.78c-0.85-0.24-1.63-0.53-1.41-1.69
	C184.12,23.5,184.01,23.16,183.98,22.83z M34.34,74.76c-0.64,0.84-1.25,1.89-2.1,2.68c-1.03,0.96-2.3,1.38-3.75,0.79
	c-1.52-0.62-2.72-1.49-3.01-3.24c-0.22-1.33,0.34-2.41,1.1-3.42c0.57-0.76,1.32-0.24,2-0.28c0.13-0.01,0.26-0.09,0.5-0.17
	c-0.35-0.42-0.57-0.82-0.91-1.04c-0.22-0.14-0.78-0.16-0.9-0.01c-1.6,2.06-3.06,4.19-2.88,7c0.14,2.08,1.73,3.53,3.82,3.7
	C31.08,80.99,34.07,77.25,34.34,74.76z M109.33,21.28c-1.14-1.42-0.55-3,1.18-3.27c0.31-0.05,0.65-0.05,0.94-0.16
	c0.66-0.24,1.12,0.04,1.4,0.56c0.25,0.46,0.34,1,0.51,1.5c0.04,0.11,0.14,0.31,0.18,0.3c1.05-0.16,2.1-0.35,3.04-0.51
	c-0.63-0.67-1.2-1.18-1.66-1.78c-1.33-1.78-2.61-3.6-3.94-5.39c-0.16-0.21-0.52-0.45-0.74-0.4c-0.24,0.05-0.53,0.38-0.59,0.64
	c-0.52,2.13-0.98,4.27-1.5,6.4c-0.21,0.88-0.54,1.73-0.83,2.63C107.96,21.64,108.63,21.46,109.33,21.28z M149.96,17.8
	c1.31,0.09,2.38,0.16,3.57,0.24c-1.81-2.65,1.37-6.83,4.16-8.24c-1.06-0.16-1.87-0.29-2.53-0.39c0,0.56,0.14,1.01-0.03,1.27
	c-0.47,0.73-1.04,1.4-1.63,2.05c-0.14,0.15-0.7,0.2-0.75,0.11c-0.65-1.18-1.87-2.12-1.66-3.7c-1.17-0.12-2.34-0.24-3.63-0.37
	C151.18,12.94,151.72,15.6,149.96,17.8z M77.63,31.77c-0.11-0.01-0.23-0.01-0.34-0.02c0.58,1.82-0.52,2.57-1.81,3.19
	c-0.04,0.02-0.07,0.04-0.1,0.06c-0.49,0.35-0.83,0.28-1.16-0.27c-0.92-1.58-1.92-3.11-2.82-4.7c-0.34-0.6-0.5-1.31-0.76-2.02
	c-0.83,0.51-1.83,1.13-2.89,1.79c1.65,0.69,2.07,2.26,2.85,3.47c0.77,1.19,2.04,2.22,1.77,3.93c1.85-1.09,3.62-2.16,5.41-3.17
	c0.59-0.33,0.69-0.73,0.43-1.27C78.06,32.42,77.83,32.1,77.63,31.77z M139.41,17.29c1.47,0,2.84,0,4.2,0
	c-1.63-0.23-1.67-0.25-1.64-1.88c0.02-1.52,0.06-3.04,0.13-4.55c0.03-0.71,0.17-1.41,0.26-2.13c-1.03,0-2.14,0-3.29,0
	C139.69,9.52,139.94,15.96,139.41,17.29z M133.01,17.51c0.81,0,1.6,0.04,2.39-0.03c0.21-0.02,0.56-0.36,0.56-0.54
	c-0.09-2.06-0.28-4.12-0.35-6.17c-0.02-0.67,0.24-1.34,0.37-2.02c-0.33,0-0.92-0.02-1.51,0.01c-0.58,0.02-1.16,0.09-1.83,0.14
	C133.63,10.36,133.83,16.54,133.01,17.51z M146.22,15.42c-0.5,0.69-0.95,1.3-1.41,1.93C146.26,17.66,146.5,17.35,146.22,15.42z"/>
<path class="st0" d="M260.36,141.35c-0.26,3.32-0.52,8.92-1.19,14.47c-0.48,3.99-1.67,7.89-2.25,11.87
	c-0.34,2.34-1.58,3.04-3.67,3.56c-6.23,1.54-12.4,3.35-18.6,5.02c-5.35,1.44-10.73,2.81-16.08,4.24c-5.36,1.43-10.7,2.93-16.05,4.36
	c-4.51,1.21-9.03,2.37-13.53,3.58c-3.81,1.02-7.61,2.1-11.43,3.12c-4.47,1.2-8.95,2.36-13.42,3.56c-2.93,0.78-5.85,1.61-8.77,2.4
	c-2.66,0.72-5.32,1.41-7.98,2.12c-3.93,1.06-7.85,2.13-11.78,3.18c-3.54,0.95-7.09,1.88-10.64,2.83c-3.85,1.03-7.7,2.09-11.55,3.13
	c-2.7,0.73-5.4,1.42-8.1,2.15c-4.81,1.31-9.61,2.64-14.43,3.94c-3.58,0.96-7.18,1.86-10.76,2.82c-3.82,1.02-7.62,2.08-11.43,3.11
	c-4.24,1.14-8.47,2.29-12.73,3.37c-0.36,0.09-0.99-0.23-1.28-0.55c-3.2-3.55-6.5-7.02-9.48-10.75c-4.24-5.29-7.88-11.01-11.09-16.99
	c-3.04-5.67-5.61-11.54-7.73-17.61c-1.92-5.51-3.46-11.13-4.49-16.87c-1.81-10.15-2.64-20.37-1.68-30.68
	c0.43-4.57,1.04-9.12,1.61-13.68c0.15-1.18,0.4-2.37,0.73-3.51c0.1-0.36,0.55-0.81,0.92-0.9c5.17-1.19,10.36-2.32,15.53-3.48
	c4.55-1.03,9.1-2.11,13.65-3.13c5.37-1.21,10.76-2.36,16.13-3.56c3.5-0.78,6.99-1.63,10.5-2.42c3.19-0.72,6.39-1.39,9.58-2.11
	c4.63-1.04,9.26-2.11,13.89-3.16c3.43-0.77,6.86-1.52,10.28-2.3c5.52-1.25,11.04-2.53,16.57-3.77c3.27-0.74,6.56-1.4,9.82-2.14
	c5.64-1.28,11.27-2.6,16.92-3.88c3.27-0.74,6.56-1.4,9.83-2.14c4.55-1.02,9.1-2.1,13.65-3.12c4.59-1.03,9.2-2.01,13.79-3.04
	c4.28-0.96,8.55-1.99,12.83-2.95c4.28-0.96,8.58-1.86,12.86-2.82c4.63-1.04,9.26-2.1,13.88-3.18c1.11-0.26,1.89-0.15,2.65,0.88
	c5.59,7.55,10.41,15.55,14.21,24.16c2.26,5.12,4.25,10.34,5.69,15.73c1.28,4.77,2.19,9.65,3.1,14.51
	C260.01,126.77,260.21,132.92,260.36,141.35z M70.95,106.32c-2.44,0.36-4.91,0.59-7.32,1.11c-5.34,1.15-10.64,2.5-15.98,3.67
	c-4.43,0.98-8.76,2.17-12.55,4.78c-6.92,4.76-10.75,11.27-10.5,19.76c0.17,5.66,2.48,10.51,6.86,14.22c6,5.07,13,6.06,20.49,4.78
	c2.07-0.35,2.12-0.39,2.47,1.66c0.03,0.2,0.05,0.4,0.09,0.59c0.69,2.91,1.38,5.82,2.09,8.72c0.15,0.62,0.05,0.93-0.65,1.08
	c-2.44,0.55-4.86,1.2-7.31,1.75c-0.88,0.2-1.48,0.53-1.88,1.42c-1.47,3.27-3.02,6.5-4.56,9.74c-2.08,4.39-4.18,8.77-6.26,13.16
	c-0.11,0.24-0.13,0.52-0.19,0.79c0.3,0.03,0.6,0.08,0.89,0.07c0.19,0,0.39-0.1,0.58-0.14c4.46-1.04,8.91-2.08,13.37-3.1
	c3.3-0.75,6.6-1.45,9.9-2.2c4.97-1.13,9.94-2.28,14.91-3.45c0.63-0.15,0.87,0.06,1.02,0.63c0.21,0.81,0.43,1.62,0.73,2.4
	c1.59,4.1,3.49,8.05,6.03,11.67c1.64,2.34,3.58,4.4,5.92,6.04c2.17,1.52,4.75,1.79,7.29,2.04c5.18,0.51,10.28-0.06,15.31-1.3
	c5.6-1.38,10.93-3.5,16.07-6.1c6.27-3.18,12.28-6.78,18.01-10.86c7.63-5.43,15.25-10.85,22.86-16.3
	c6.32-4.53,12.68-8.97,19.83-12.15c3.15-1.4,6.4-2.45,9.84-2.86c0.82-0.1,1.25,0.13,1.37,1.02c0.31,2.21,0.72,4.41,1.07,6.61
	c0.16,1.06,0.28,1.12,1.26,0.64c1.43-0.7,2.85-1.43,4.33-2.01c2.62-1.02,4.65-2.82,6.33-4.94c2.76-3.5,4.17-7.67,5.31-11.92
	c0.24-0.89,0.51-1.01,1.29-0.66c0.94,0.42,1.91,0.81,2.9,1.08c5.7,1.56,11.34,1.01,16.83-0.86c2.2-0.75,4.33-1.89,6.28-3.16
	c4.77-3.11,8.08-7.38,9.57-12.96c1.03-3.83,0.92-7.64,0.01-11.49c-1.13-4.76-3.2-9.02-6.63-12.51c-1.89-1.93-4.02-3.63-6.08-5.39
	c-0.62-0.53-0.98-0.8-0.35-1.7c1.34-1.92,2.39-4.05,3.72-5.99c0.88-1.27,0.98-2.38,0.49-3.85c-1.45-4.31-3.25-8.38-6.52-11.67
	c-3.77-3.79-8.36-5.78-13.62-6.21c-2.06-0.17-4.17-0.19-6.23-0.01c-3.38,0.3-6.78,0.7-9.42,3.22c-0.8,0.76-1.64,1.49-2.32,2.34
	c-0.71,0.9-1.27,1.93-1.87,2.92c-0.39,0.64-0.81,1-1.64,0.69c-0.67-0.25-1.39-0.39-2.1-0.44c-3.94-0.31-7.89-0.58-11.83-0.86
	c-1.03-0.07-1.06-0.04-0.62,0.91c1.37,3.01,2.75,6.02,4.12,9.02c0.54,1.19,0.44,1.25-0.9,1.32c-2.39,0.12-4.78,0.23-7.14,0.57
	c-2.47,0.35-4.9,1.07-7.37,1.44c-3.49,0.52-6.88,1.34-10.13,2.73c-1.39,0.6-2.69,1.47-4.13,1.86c-3.1,0.85-6.28,1.41-9.4,2.18
	c-2.97,0.73-6.06,1.02-8.83,2.46c-0.23,0.12-0.54,0.08-0.81,0.11c-0.71,0.06-1.44,0.04-2.13,0.18c-1.52,0.3-3.03,0.68-4.54,1.04
	c-3.76,0.88-7.51,1.78-11.28,2.65c-3.19,0.74-6.36,1.55-9.58,2.15c-3.75,0.7-6.74,2.45-8.56,5.86c-0.5,0.94-1.08,1.04-1.91,0.76
	c-4.75-1.6-9.58-1.6-14.41-0.51c-1.2,0.27-2.35,0.92-3.42,1.58c-0.69,0.43-0.94,0.62-1.38-0.27c-1.44-2.88-3.52-5.19-6.34-6.81
	C78.36,107.16,74.77,106.46,70.95,106.32z"/>
<path class="st0" d="M140.08,259.34c-7.26,0.09-14.45-0.7-21.58-1.91c-5.78-0.98-11.44-2.4-16.98-4.39
	c-4.83-1.74-9.5-3.78-14.15-5.94c-6.81-3.16-13.08-7.16-19.14-11.55c-0.53-0.39-0.97-0.89-1.46-1.34c0.58-0.23,1.14-0.51,1.73-0.67
	c4.92-1.31,9.86-2.59,14.78-3.91c3.65-0.98,7.28-2.03,10.93-3.02c3.84-1.04,7.71-2.01,11.55-3.04c4.73-1.27,9.45-2.58,14.18-3.86
	c5.61-1.52,11.23-3.03,16.85-4.54c7.08-1.9,14.16-3.78,21.24-5.67c4.85-1.29,9.7-2.56,14.55-3.87c6.23-1.68,12.44-3.41,18.68-5.09
	c7.77-2.08,15.56-4.11,23.33-6.19c6.23-1.67,12.45-3.4,18.68-5.08c5.73-1.55,11.46-3.08,17.19-4.6c0.24-0.06,0.51,0.04,0.77,0.06
	c-0.05,0.31-0.05,0.64-0.17,0.91c-1.45,3.1-2.81,6.25-4.42,9.27c-1.81,3.4-3.65,6.81-5.82,9.98c-2.78,4.06-5.79,7.99-8.91,11.81
	c-6.77,8.28-14.74,15.29-23.5,21.39c-5.09,3.55-10.42,6.77-16.09,9.32c-4.93,2.22-9.95,4.28-15.05,6.04
	c-4.17,1.44-8.48,2.58-12.81,3.39c-5.12,0.96-10.33,1.51-15.52,2.07C146,259.23,143.03,259.21,140.08,259.34z"/>
<path class="st0" d="M134,69.64c-0.06-0.66-0.12-1.13-0.14-1.6c-0.2-3.92-0.13-7.83,0.92-11.65c1.07-3.89,2.97-7.27,6.18-9.82
	c0.98-0.78,0.99-0.91,0.27-1.94c-0.16-0.23-0.31-0.46-0.48-0.68c-1.17-1.56-1.19-1.59-2.67-0.22c-0.9,0.84-1.74,1.75-2.55,2.67
	c-0.67,0.75-0.8,0.77-1.41-0.04c-2.94-3.91-6.33-7.37-10.45-10.03c-5.32-3.44-11.16-4.91-17.51-4.45c-4.7,0.34-9.2,1.51-13.57,3.16
	c-5.13,1.93-10.19,4.04-15.28,6.09c-1.83,0.74-1.78,0.72-0.37,2.26C80.3,47.06,84,50.32,88.23,53c5.04,3.21,10.5,5.36,16.38,6.23
	c6.42,0.95,12.77,0.29,18.79-2.27c2.54-1.08,4.91-2.57,7.36-3.86c0.25-0.13,0.55-0.19,0.82-0.29c-0.02,0.31,0.03,0.64-0.06,0.92
	c-1.75,5.23-1.72,10.59-1.1,15.98c0.14,1.24,0.01,1.39-1.15,1.01c-5.44-1.76-10.83-3.72-16.34-5.27c-3.79-1.06-7.73-1.58-11.73-1.03
	c-5.73,0.78-10.22,3.78-14.14,7.8c-3.96,4.07-6.99,8.74-8.89,14.12c-0.34,0.95-0.82,1.53-1.92,1.76
	c-5.85,1.23-11.68,2.54-17.51,3.85c-4.59,1.03-9.17,2.1-13.75,3.15c-5.75,1.31-11.5,2.61-17.25,3.91c-0.9,0.2-1.11,0.01-0.77-0.89
	c1-2.64,2-5.29,3.12-7.88c3.34-7.69,7.53-14.91,12.45-21.68c4.97-6.84,10.59-13.11,16.89-18.77c4.27-3.84,8.75-7.39,13.51-10.59
	c5.72-3.84,11.65-7.31,18.03-9.94c4.34-1.79,8.68-3.63,13.14-5.05c6.38-2.04,12.92-3.44,19.58-4.33c6-0.8,12.01-1.29,18.04-1.09
	c4.9,0.16,9.79,0.68,14.68,1.13c4.98,0.46,9.84,1.55,14.66,2.84c6.23,1.67,12.3,3.82,18.2,6.47c8.35,3.75,16.22,8.29,23.43,13.92
	c4.13,3.22,7.97,6.8,11.93,10.24c0.28,0.24,0.42,0.64,0.62,0.97c-0.34,0.14-0.68,0.33-1.03,0.41c-6.41,1.47-12.81,2.93-19.22,4.38
	c-3.15,0.71-6.3,1.41-9.46,2.06c-0.38,0.08-0.99-0.06-1.24-0.33c-3.95-4.17-8.66-7.22-13.98-9.31c-5.35-2.1-10.86-3.48-16.68-3.07
	c-5.32,0.37-10.34,1.73-14.96,4.47c-6.26,3.71-10.77,8.96-13.79,15.54c-0.12,0.25-0.24,0.51-0.39,0.74
	C134.42,69.36,134.3,69.41,134,69.64z"/>
<path class="st0" d="M104.96,66.9c4.3,0.09,8.32,1.44,12.36,2.71c3.57,1.13,7.12,2.35,10.72,3.38c3.11,0.88,6.25,1.14,9.02-1.04
	c0.59-0.47,1.14-1.12,1.45-1.81c1.98-4.41,4.79-8.19,8.53-11.22c3.38-2.75,7.21-4.66,11.48-5.69c5.01-1.21,10.05-1.06,14.96,0.19
	c5.84,1.48,11.26,4.02,15.86,8.03c0.25,0.22,0.4,0.54,0.6,0.82c-0.32,0.13-0.63,0.3-0.96,0.38c-3.54,0.82-7.08,1.63-10.62,2.43
	c-3.23,0.73-6.47,1.42-9.7,2.15c-3.58,0.81-7.15,1.66-10.73,2.47c-3.31,0.75-6.62,1.47-9.94,2.21c-3.7,0.83-7.4,1.66-11.1,2.49
	c-5.53,1.23-11.07,2.43-16.59,3.68c-6.34,1.44-12.67,2.94-19.01,4.38c-6.19,1.4-12.39,2.75-18.58,4.12
	c-0.04,0.01-0.08,0.02-0.12,0.02c-0.47,0.02-0.93,0.04-1.4,0.07c0.13-0.4,0.23-0.81,0.39-1.2c2.64-6.24,6.67-11.39,12.2-15.32
	C97.12,67.75,100.9,66.82,104.96,66.9z"/>
<path class="st0" d="M132.23,49.53c-1.87,1.24-3.65,2.65-5.64,3.68c-2.32,1.2-4.76,2.23-7.25,3.04c-3.52,1.15-7.19,1.42-10.89,1.26
	c-5.6-0.23-10.86-1.74-15.82-4.28c-4.78-2.46-9-5.71-12.73-9.59c-0.94-0.98-0.86-1.12,0.44-1.63c3.08-1.22,6.12-2.51,9.2-3.72
	c5.47-2.15,11.03-3.98,16.95-4.42c3.84-0.28,7.61,0.24,11.19,1.56c3.31,1.21,6.27,3.16,8.85,5.56c1.81,1.68,3.41,3.57,5.1,5.38
	c0.15,0.16,0.22,0.4,0.32,0.6c-0.25,0.02-0.5,0.09-0.75,0.06c-5.81-0.81-11.62-1.67-17.44-2.43c-4.23-0.55-8.49-0.96-12.73-1.42
	c-0.56-0.06-1.26-0.24-1.36,0.7c-0.09,0.81,0.14,1.23,1.06,1.33c6.39,0.69,12.78,1.41,19.17,2.18c3.61,0.44,7.2,0.99,10.8,1.5
	c0.47,0.07,0.92,0.21,1.38,0.32C132.14,49.32,132.18,49.42,132.23,49.53z"/>
<path class="st0" d="M113.32,257.87c1.46,0.26,3.09,0.51,4.71,0.84c1.01,0.21,2,0.5,2.97,0.85c1.04,0.37,1.6,1.15,1.56,2.29
	c-0.04,1.19-0.64,2-1.79,2.43c-1.18,0.44-1.19,0.45-0.65,1.6c0.5,1.08,0.97,2.18,1.58,3.2c0.37,0.62,0.98,1.1,1.47,1.63
	c-2.05,0.65-4.02-0.44-4.92-2.75c-0.36-0.93-0.74-1.85-1.18-2.74c-0.14-0.28-0.49-0.47-0.74-0.7c-0.19,0.27-0.5,0.51-0.56,0.81
	c-0.21,0.97-0.42,1.96-0.43,2.95c-0.01,0.4,0.49,0.81,0.91,1.45c-1.88-0.36-3.6-0.69-5.32-1.02c-0.04-0.1-0.08-0.2-0.12-0.3
	c1.61,0.08,1.7-1.07,1.91-2.09c0.46-2.22,0.96-4.44,1.3-6.68C114.1,259.14,113.6,258.54,113.32,257.87z M117.51,263.84
	c1.3-0.01,2.07-0.85,2.15-2.33c0.06-1.16-0.7-2.05-1.87-2.24c-0.58-0.09-0.92,0.14-1.03,0.71c-0.17,0.86-0.36,1.71-0.46,2.58
	C116.15,263.69,116.33,263.86,117.51,263.84z"/>
<path class="st0" d="M95.62,264.25c1.57,0.22,1.83-0.66,2.13-1.69c0.58-1.99,1.3-3.93,1.94-5.9c0.44-1.36,0.42-1.37-0.62-2.6
	c0.67,0.16,1.15,0.24,1.6,0.38c1.94,0.6,3.88,1.19,5.8,1.85c2.54,0.87,3.97,2.91,3.71,5.19c-0.41,3.72-3.64,6.04-7.41,5.19
	c-2.21-0.5-4.37-1.23-6.54-1.88C96.07,264.76,95.96,264.56,95.62,264.25z M107.19,259.79c0.02-1.93-1.05-3.11-3.25-3.64
	c-0.82-0.2-1.2,0.02-1.42,0.76c-0.74,2.48-1.5,4.95-2.2,7.43c-0.09,0.31,0.01,0.86,0.23,1.03c1.45,1.16,3.85,0.83,5.07-0.65
	C106.77,263.33,106.98,261.62,107.19,259.79z"/>
<path class="st0" d="M174.15,259.55c-0.15-3.04,2.25-4.99,4.91-5.84c0.93-0.3,1.95-0.44,2.94-0.46c2.6-0.05,4.21,1.21,5.21,3.91
	c0.75,2.03,0.16,4.45-1.52,5.89c-1.96,1.68-4.27,2.47-6.86,2.27C176,265.1,174.15,262.78,174.15,259.55z M176.73,257.69
	c0,1.85,0.6,3.53,1.59,5.06c0.97,1.5,2.66,1.99,4.31,1.41c1.7-0.6,2.5-1.83,2.28-3.73c-0.22-1.89-0.87-3.64-2.15-5.09
	c-1.06-1.2-2.39-1.47-3.91-0.9C177.46,254.95,176.73,256.07,176.73,257.69z"/>
<path class="st0" d="M159.23,270.16c-1.14,0.15-2.28,0.37-3.43,0.43c-0.39,0.02-0.89-0.3-1.2-0.6c-1.02-1.01-1.95-2.1-2.95-3.13
	c-0.28-0.29-0.67-0.48-1-0.71c-0.01,0.38-0.05,0.75-0.03,1.13c0.03,0.52,0.17,1.03,0.15,1.55c-0.04,0.96,0.11,1.75,1.35,1.9
	c-0.04,0.09-0.09,0.19-0.13,0.28c-1.7,0.15-3.4,0.3-5.1,0.45c-0.08-0.07-0.15-0.14-0.23-0.21c1.83-0.69,1.26-2.06,1.18-3.3
	c-0.11-1.75-0.3-3.5-0.33-5.26c-0.02-1-0.13-1.81-1.36-2.06c0.04-0.1,0.08-0.21,0.11-0.31c1.54-0.1,3.08-0.2,4.63-0.3
	c0.07,0.07,0.13,0.14,0.2,0.21c-0.99,0.4-1.1,1.11-0.96,1.96c0.15,0.97,0.22,1.96,0.35,3.25c0.49-0.47,0.8-0.73,1.06-1.04
	c0.77-0.91,1.5-1.86,2.27-2.77c0.54-0.64,0.92-1.23-0.29-1.9c1.42-0.18,2.57-0.32,3.73-0.46c0.03,0.08,0.07,0.16,0.1,0.24
	c-2.04,0.87-2.82,2.93-4.2,4.41c-0.16,0.17-0.1,0.8,0.09,1c1.37,1.44,2.76,2.86,4.23,4.19c0.48,0.43,1.2,0.59,1.81,0.87
	C159.26,270.04,159.24,270.1,159.23,270.16z"/>
<path class="st0" d="M135.37,271.42c-1.03,0-2.25,0-3.47,0c-0.05-0.1-0.09-0.2-0.14-0.29c1.58-0.11,1.5-1.14,1.53-2.21
	c0.05-2.07,0.19-4.14,0.31-6.21c0.05-0.87,0.06-1.71-1.1-1.99c1.36-0.67,3.03-0.33,3.86,0.63c1.65,1.89,3.33,3.75,5.01,5.62
	c0.17,0.19,0.42,0.32,0.63,0.47c0.08-0.29,0.23-0.57,0.23-0.86c0.01-1.32-0.1-2.64-0.02-3.95c0.06-1.05-0.56-1.53-1.29-2.11
	c1.13,0,2.26,0,3.59,0c-1.85,0.95-1.17,2.49-1.13,3.87c0.05,2.11,0.14,4.23,0.19,6.34c0.01,0.27-0.2,0.79-0.28,0.79
	c-0.39-0.02-0.89-0.07-1.14-0.32c-1.55-1.6-3.05-3.25-4.54-4.9c-0.69-0.77-1.34-1.58-2.03-2.35c-0.14-0.16-0.37-0.25-0.56-0.37
	c-0.09,0.19-0.26,0.38-0.27,0.58c-0.11,1.87-0.27,3.74-0.22,5.61C134.52,270.35,135.1,270.93,135.37,271.42z"/>
<path class="st0" d="M129.27,9.63c-0.07,0.14-0.2,0.29-0.19,0.43c0.18,2.26,0.35,4.52,0.59,6.78c0.04,0.34,0.46,0.64,0.88,1.18
	c-1.36,0-2.53,0-3.71,0l0.02,0.02c0.53-0.47,0.62-1.03,0.52-1.72c-0.24-1.65-0.39-3.31-0.58-4.96c-0.1-0.03-0.2-0.05-0.3-0.08
	c-0.53,1.38-1.07,2.75-1.58,4.13c-0.29,0.78-0.49,1.6-0.79,2.38c-0.1,0.26-0.37,0.62-0.59,0.64c-0.22,0.02-0.53-0.29-0.69-0.53
	c-1.09-1.57-2.14-3.16-3.24-4.72c-0.14-0.2-0.46-0.28-0.69-0.42c0,0-0.02-0.05-0.02-0.05l0.04,0.03c-0.02,2.15,0.57,4.17,1.06,6.33
	c-0.41,0.08-1.13,0.22-1.85,0.35c0.72-0.61,0.7-1.31,0.52-2.13c-0.33-1.51-0.53-3.06-0.85-4.58c-0.14-0.65-0.44-1.27-0.69-1.98
	c0.66-0.11,1.46-0.32,2.27-0.34c0.35-0.01,0.81,0.31,1.03,0.62c0.95,1.27,1.81,2.61,2.74,3.9c0.19,0.26,0.51,0.43,0.77,0.64
	c0.15-0.26,0.33-0.51,0.44-0.79c0.59-1.48,1.2-2.95,1.71-4.45c0.23-0.68,0.59-0.97,1.28-0.99c0.6-0.02,1.19-0.1,1.79-0.13
	c0.02,0,0.05,0.3,0.07,0.45L129.27,9.63z"/>
<path class="st0" d="M204.8,254.83c-1.08,0.57-2.16,1.15-3.24,1.72c1.48-2.44,0.4-4.91,0.42-7.29c0.01-1.47-0.29-2.93-0.36-4.4
	c-0.02-0.41,0.25-0.84,0.39-1.27c0.39,0.14,0.84,0.19,1.16,0.43c2.28,1.66,4.53,3.36,6.8,5.04c1.01,0.74,1.02,0.73,3.05,0.91
	c-1.72,1.07-3.24,2.01-4.75,2.95c-0.11-0.17-0.2-0.25-0.18-0.29c0.21-0.52,0.86-0.94,0.08-1.61c-1.37-1.18-1.6-1.31-2.63-0.74
	c-0.31,0.17-0.6,0.41-0.94,0.52c-1.21,0.41-1.48,1.22-1.31,2.43c0.13,0.93,0.18,1.66,1.62,1.12
	C204.86,254.5,204.83,254.67,204.8,254.83z M202.8,247.75c0.07,0.83,0.07,1.48,0.19,2.1c0.05,0.24,0.45,0.65,0.52,0.62
	c0.67-0.32,1.3-0.71,1.95-1.08c-0.32-0.38-0.61-0.78-0.96-1.13c-0.28-0.28-0.6-0.52-0.93-0.73c-0.18-0.12-0.41-0.15-0.62-0.22
	C202.88,247.5,202.81,247.71,202.8,247.75z"/>
<path class="st0" d="M229.21,222.35c0.93-0.98,1.74-1.84,2.56-2.71c-0.7,2.33,0.66,4.29,1.01,6.37c0.29,1.74,1.85,2.62,3.06,3.67
	c0.3,0.26,1.01,0.04,1.63,0.04c-1.35,1.29-2.64,2.54-3.94,3.78c0.9-1.36-0.27-2.02-1.02-2.8c-0.77-0.8-1.51-1.64-2.75-1.77
	c-0.67-0.07-1.31-0.36-1.98-0.45c-1.44-0.2-2.82-1.14-4.36-0.13c-0.02-0.11-0.04-0.22-0.06-0.32c1.31-1.23,2.62-2.47,3.97-3.73
	c0.09,0.58,0.01,1.22,0.29,1.5c0.32,0.32,0.95,0.35,1.45,0.46c0.62,0.14,1.25,0.26,1.88,0.37c0.9,0.15,1.06-0.05,0.8-0.97
	c-0.18-0.61-0.34-1.23-0.5-1.85C230.86,222.31,230.84,222.28,229.21,222.35z"/>
<path class="st0" d="M41.02,64.05c0.17,2.34-2.59,6.32-5.07,7.07c-1.57,0.47-2.99,0.08-4.2-1.05c-1.2-1.12-1.61-2.52-1.2-4.04
	c0.6-2.19,1.8-4.07,3.63-5.47c1.38-1.05,2.92-1.39,4.49-0.56C40.28,60.85,41.13,62.23,41.02,64.05z M36.74,69.35
	c1.26-0.06,2.25-0.81,2.86-2.03c0.56-1.12,0.5-2.23-0.28-3.26c-0.86-1.14-1.96-1.97-3.31-2.44c-1.22-0.42-2.26-0.09-3.14,0.83
	c-0.99,1.04-1.66,2.17-1.1,3.65C32.36,67.66,34.9,69.35,36.74,69.35z"/>
<path class="st0" d="M166.4,11.28c1.4-0.02,2.73,0.29,3.78,1.21c0.41,0.35,0.75,1.13,0.65,1.61c-0.1,0.49-0.78,0.87-1.24,1.25
	c-0.22,0.18-0.51,0.28-0.78,0.41c0.2,0.17,0.39,0.36,0.59,0.52c0.64,0.52,0.99,1.16,0.79,1.99c-0.21,0.91-0.86,1.5-1.74,1.59
	c-1.06,0.11-2.16,0.11-3.22-0.01c-1.26-0.15-2.5-0.49-3.65-0.73c0.26-0.52,0.61-1.01,0.73-1.54c0.39-1.79,0.72-3.6,1-5.41
	c0.07-0.46-0.09-0.97-0.18-1.67c1.04,0.25,2.17,0.52,3.29,0.78c-0.69,0.57-1.34,2.74-1.01,3.47c0.08,0.18,0.32,0.34,0.53,0.4
	c1.07,0.33,1.95-0.1,2.3-1.08c0.42-1.18,0.11-1.9-1.01-2.4C166.95,11.56,166.68,11.42,166.4,11.28z M167.78,17.47
	c0.03-0.98-1.1-2.13-2.08-2.04c-0.27,0.03-0.63,0.35-0.72,0.62c-0.2,0.6-0.23,1.25-0.37,1.87c-0.29,1.29,0.19,1.81,1.52,1.6
	C167.12,19.36,167.75,18.57,167.78,17.47z"/>
<path class="st0" d="M200.41,256.12c-0.44,1.25-1.44,1.89-2.45,2.46c-1.91,1.08-4,1.58-6.09,0.77c-3.97-1.54-4.78-6.84-1.41-9.59
	c1.35-1.1,3.1-1.71,4.68-2.54c0.52-0.27,0.83-0.04,0.98,0.48c0.14,0.5,0.27,1,0.36,1.51c0.03,0.16-0.07,0.35-0.11,0.53
	c-0.17-0.06-0.35-0.12-0.52-0.19c-0.04-0.01-0.06-0.05-0.09-0.08c-0.57-0.57-0.98-1.47-2.04-1.05c-1.32,0.52-2.34,1.39-2.72,2.81
	c-0.58,2.18,0.83,5.24,2.82,6.38c1.72,0.98,3.31,0.55,4.86-0.34C199.28,256.94,199.84,256.51,200.41,256.12z"/>
<path class="st0" d="M228.43,234.23c0.29,0.12,0.33,0.12,0.36,0.15c1.99,1.79,1.99,2.12-0.02,3.8c-1.56,1.3-3.12,2.59-4.69,3.88
	c-0.29,0.24-0.63,0.43-1.1,0.63c1-1.35,0.07-2.13-0.66-3.01c-1.29-1.57-2.55-3.16-3.76-4.79c-0.54-0.73-1.15-1.02-2.07-0.69
	c-0.02-0.09-0.05-0.19-0.07-0.28c1.25-1.04,2.49-2.07,3.74-3.11c0.09,0.02,0.18,0.05,0.28,0.07c-0.85,1.2-0.08,1.93,0.59,2.72
	c1.42,1.67,2.84,3.33,4.19,5.05c0.62,0.79,1.17,0.82,1.84,0.15c0.11-0.11,0.21-0.25,0.35-0.33c1.24-0.77,1.74-1.78,1.14-3.21
	C228.45,235.01,228.48,234.69,228.43,234.23z"/>
<path class="st0" d="M208.19,239.81c1.16-0.8,2.47-1.7,3.93-2.7c-0.14,0.71-0.4,1.24-0.29,1.69c0.12,0.51,0.58,0.94,0.89,1.39
	c1.28,1.82,2.57,3.63,3.83,5.47c0.4,0.58,0.8,0.75,1.35,0.22c0.06-0.05,0.13-0.09,0.2-0.13c1.46-0.76,2.44-1.76,1.81-3.59
	c-0.07-0.19,0.03-0.44,0.05-0.67c0.08-0.04,0.17-0.08,0.25-0.12c0.46,0.71,0.95,1.4,1.35,2.13c0.08,0.15-0.05,0.58-0.22,0.7
	c-2.34,1.65-4.69,3.27-7.05,4.89c-0.08,0.05-0.22,0.03-0.52,0.05c0.99-1.06,0.38-1.84-0.19-2.68c-1.21-1.77-2.32-3.62-3.58-5.35
	C209.61,240.56,208.85,240.27,208.19,239.81z"/>
<path class="st0" d="M165.24,268.82c1.49-0.72,0.97-1.84,0.76-2.89c-0.41-2.07-0.78-4.15-1.3-6.2c-0.14-0.55-0.72-0.99-1.17-1.57
	c0.31-0.08,0.81-0.23,1.31-0.35c0.58-0.13,1.17-0.23,1.76-0.35c0.45-0.09,0.9-0.19,1.35-0.28c-0.21,0.32-0.48,0.63-0.6,0.98
	c-0.1,0.32-0.08,0.71-0.01,1.05c0.52,2.45,1.08,4.9,1.61,7.35c0.18,0.82,0.58,1.2,1.44,0.87c0.15-0.06,0.31-0.11,0.46-0.12
	c1.52-0.12,2.36-0.91,2.51-2.45c0.02-0.21,0.27-0.39,0.41-0.59c0.11,0.19,0.26,0.37,0.31,0.58c0.55,2.18,0.45,2.29-1.75,2.72
	c-1.79,0.36-3.57,0.83-5.35,1.23c-0.52,0.11-1.05,0.14-1.58,0.21C165.36,268.95,165.3,268.88,165.24,268.82z"/>
<path class="st0" d="M198.92,31.86c-0.86-0.46-1.52-0.81-2.03-1.08c0.41-0.48,0.89-0.88,1.17-1.38c0.86-1.57,1.62-3.19,2.45-4.78
	c0.33-0.63,0.5-1.19-0.27-1.69c2.73,0.88,2.74,1.13,3.24,2.96c0.56,2.03,1.23,4.03,1.94,6.37c1.04-1.87,2.48-3.21,2.58-5.33
	c0.67,0.4,1.38,0.82,2.09,1.24c-0.85-0.11-1.22,0.35-1.59,1c-0.97,1.69-1.99,3.35-3.03,5c-0.21,0.34-0.59,0.57-0.89,0.84
	c-0.21-0.36-0.51-0.7-0.63-1.09c-0.68-2.25-1.32-4.51-1.99-6.76c-0.14-0.49-0.35-0.96-0.54-1.46
	C200.15,26.71,198.42,30.74,198.92,31.86z"/>
<path class="st0" d="M91.35,18.04c-0.17,0.16-0.33,0.32-0.5,0.48c0,0,0.02-0.02,0.02-0.02c0.32,1.21,0.58,2.43,0.98,3.62
	c0.39,1.17,0.92,2.29,1.36,3.44c0.1,0.27,0.06,0.59,0.08,0.88c-0.33,0-0.7,0.09-0.98-0.02c-2.32-0.95-4.62-1.95-6.93-2.91
	c-0.35-0.14-0.73-0.2-1.1-0.29c-0.07,0.07-0.14,0.13-0.2,0.2c0.78,1.68,1.54,3.37,2.38,5.01c0.13,0.26,0.69,0.29,1.06,0.43
	l-0.02-0.02c-0.66,0.4-1.33,0.79-1.86,1.11c-0.15-0.68-0.2-1.32-0.44-1.88c-0.71-1.6-1.46-3.18-2.28-4.73
	c-0.25-0.47-0.78-0.79-1.23-1.22c1.07-0.73,2.31-1.25,3.91-0.44c1.63,0.82,3.37,1.42,5.07,2.11c0.2,0.08,0.45,0.06,0.67,0.09
	c0-0.22,0.05-0.46-0.02-0.64c-0.4-1.04-0.79-2.09-1.27-3.09c-0.22-0.46-0.63-0.82-1.06-1.35c0.74-0.23,1.55-0.48,2.35-0.72
	L91.35,18.04z"/>
<path class="st0" d="M129.96,271.34c-1.8-0.16-3.6-0.33-5.46-0.5c0.54-0.48,1.19-0.81,1.43-1.33c0.27-0.58,0.16-1.33,0.23-2
	c0.18-1.79,0.36-3.57,0.57-5.35c0.09-0.78,0.24-1.54-0.76-1.86c-0.09-0.03-0.16-0.23-0.17-0.37c-0.01-0.04,0.18-0.17,0.27-0.16
	c1.56,0.17,3.12,0.36,4.8,0.67c-1.74,0.25-1.38,1.51-1.46,2.57c-0.15,1.99-0.25,3.98-0.53,5.95c-0.15,1.09,0.07,1.78,1.23,2.07
	C130.06,271.14,130.01,271.24,129.96,271.34z"/>
<path class="st0" d="M40.2,53.28c-0.15,0.69,0.04,1.22,0.61,1.68c1.04,0.86,2.01,1.81,3.04,2.68c1.37,1.15,2.6,1.06,3.78-0.21
	c1.39-1.49,1.48-2.75,0.21-4.09c-0.96-1.02-1.94-2.02-3-2.92c-0.37-0.31-0.99-0.33-1.5-0.48l0.02,0.02
	c0.56-0.56,1.11-1.12,1.67-1.68c0,0-0.02-0.02-0.02-0.02c0.17,0.46,0.22,1.01,0.52,1.35c0.75,0.87,1.62,1.63,2.44,2.45
	c1.69,1.7,1.87,3.28,0.45,5.21c-0.6,0.81-1.37,1.55-2.19,2.14c-1.43,1.04-2.93,0.87-4.36-0.33c-0.91-0.77-1.8-1.57-2.72-2.33
	c-0.76-0.62-0.77-0.6-1.86-0.37c0.98-1.03,1.95-2.06,2.93-3.09L40.2,53.28z"/>
<path class="st0" d="M207.45,36.78c0.83,0.13,1.34-0.3,1.75-0.95c0.92-1.45,1.85-2.89,2.77-4.33c0.41-0.64,0.78-1.29,0.2-2.11
	c2.05,1.4,4.12,2.78,6.15,4.2c0.22,0.15,0.47,0.63,0.39,0.74c-0.23,0.34-0.62,0.58-0.94,0.86c-0.11-0.2-0.27-0.38-0.31-0.59
	c-0.07-0.4,0.08-1-0.14-1.19c-0.69-0.58-1.49-1.03-2.28-1.48c-0.1-0.06-0.43,0.16-0.57,0.33c-0.24,0.27-0.44,0.57-0.6,0.89
	c-0.28,0.55-1.12,0.94-0.62,1.74c0.45,0.72,1.52,1,2.76,0.65c-0.52,0.77-0.91,1.34-1.29,1.91c-0.08-0.03-0.17-0.07-0.25-0.1
	c-0.02-0.29,0.06-0.69-0.1-0.86c-0.42-0.45-0.89-0.95-1.44-1.15c-0.24-0.09-0.73,0.52-1.1,0.82c-0.06,0.05-0.1,0.12-0.15,0.19
	c-1.35,2.01-1.25,2.61,1.01,3.55c0.64,0.27,1.56-0.12,2.3-0.2c-0.19,1.25-0.97,1.65-2.07,0.88c-1.82-1.28-3.65-2.55-5.47-3.83
	L207.45,36.78z"/>
<path class="st0" d="M173.6,12.74c1.07,0.29,2.17,0.58,3.21,0.87c-0.31,0.52-0.71,0.96-0.86,1.46c-0.44,1.57-0.9,3.15-1.14,4.75
	c-0.21,1.38,0.56,2.17,2.18,2.65c1.23,0.37,2.51,0.03,3-1.09c0.75-1.71,1.29-3.5,1.87-5.28c0.08-0.24-0.15-0.58-0.28-1
	c0.84,0.27,1.61,0.52,2.38,0.77c-0.76,0.1-1.06,0.47-1.29,1.14c-0.52,1.54-1.07,3.09-1.79,4.54c-0.64,1.28-2.08,1.83-3.47,1.48
	c-1-0.25-2-0.55-2.94-0.97c-1.39-0.62-2.09-1.75-1.82-3.28c0.24-1.41,0.66-2.79,0.93-4.2C173.69,14.03,173.6,13.46,173.6,12.74z"/>
<path class="st0" d="M24.27,94.79C24,95.4,23.68,96.1,23.41,96.7c-1.53-2.05-3.05-4.06-4.56-6.08c-0.33-0.45-0.68-0.88-0.99-1.34
	c-0.68-1.03-0.48-1.45,0.74-1.49c2.12-0.07,4.23-0.09,6.35-0.19c0.91-0.04,1.81-0.23,2.71-0.35c-0.53,1.1-1.14,2.37-1.69,3.51
	c-0.34-0.37-0.62-0.9-0.89-0.9c-0.67,0-1.57,0.03-1.95,0.44c-0.59,0.64-1.03,1.59-1.14,2.45c-0.06,0.54,0.53,1.24,0.98,1.73
	C23.19,94.74,23.74,94.68,24.27,94.79z M21.03,89.92c-0.2,0-0.4-0.03-0.59,0.01c-0.26,0.05-0.5,0.15-0.75,0.23
	c0.09,0.25,0.16,0.51,0.27,0.74c0.07,0.14,0.2,0.25,0.31,0.36c0.41,0.39,0.82,0.78,1.22,1.17c0.31-0.58,0.66-1.14,0.92-1.74
	c0.22-0.49-0.03-0.75-0.55-0.76C21.59,89.92,21.31,89.92,21.03,89.92z"/>
<path class="st0" d="M183.98,22.83c0.03,0.33,0.14,0.68,0.08,0.99c-0.22,1.16,0.56,1.46,1.41,1.69c1.13,0.31,2.03,0.02,2.4-0.78
	c0.43-0.93-0.22-1.5-0.76-2.08c-0.65-0.7-1.42-1.29-2-2.04c-0.91-1.19-0.28-2.98,1.15-3.22c0.88-0.15,1.86-0.12,2.72,0.1
	c0.9,0.23,1.73,0.78,2.56,1.23c0.18,0.1,0.42,0.5,0.36,0.59c-0.25,0.39-0.6,0.72-0.91,1.07c-0.1-0.19-0.25-0.37-0.28-0.57
	c-0.18-1.34-0.75-1.86-2.05-1.89c-0.71-0.02-1.37,0.2-1.54,0.87c-0.11,0.45,0.11,1.06,0.36,1.5c0.24,0.43,0.7,0.74,1.06,1.12
	c0.41,0.43,0.86,0.83,1.21,1.31c1.06,1.47,0.29,3.25-1.52,3.49c-1.88,0.26-3.53-0.41-5.05-1.43c-0.17-0.12-0.23-0.6-0.15-0.85
	c0.13-0.4,0.42-0.75,0.65-1.12C183.77,22.82,183.88,22.82,183.98,22.83z"/>
<path class="st0" d="M224.55,49.66c0.36,0.25,0.69,0.64,1.08,0.71c0.54,0.09,1.22,0.11,1.66-0.14c0.64-0.38,0.7-1.11,0.35-1.81
	c-0.42-0.85-0.85-1.71-1.25-2.57c-0.42-0.9-0.64-1.79,0.1-2.69c0.72-0.88,1.66-0.77,2.53-0.51c1.84,0.56,3.04,1.98,4.21,3.39
	c0.1,0.12,0,0.57-0.15,0.69c-0.32,0.25-0.74,0.39-1.12,0.57c-0.03-0.2-0.12-0.42-0.07-0.6c0.4-1.61-0.61-2.89-2.26-2.84
	c-0.97,0.03-1.48,0.66-1.16,1.57c0.33,0.94,0.76,1.84,1.2,2.73c0.55,1.12,0.56,2.4-0.05,3.03c-0.74,0.77-1.66,0.89-2.97,0.29
	c-0.87-0.4-1.94-0.6-2.08-1.84C224.57,49.64,224.55,49.66,224.55,49.66z"/>
<path class="st0" d="M224.04,37.93c-0.34-0.09-0.69-0.26-1.03-0.26c-0.48,0.01-1.11-0.01-1.4,0.27c-0.29,0.28-0.43,0.96-0.31,1.37
	c0.21,0.75,0.67,1.42,1.02,2.13c0.23,0.46,0.44,0.94,0.66,1.4c0.4,0.83,0.2,1.59-0.39,2.2c-0.58,0.6-1.34,0.85-2.2,0.63
	c-1.93-0.51-3.37-1.74-4.66-3.17c-0.11-0.12-0.09-0.53,0.02-0.66c0.37-0.41,0.81-0.75,1.47-1.03c-0.09,0.37-0.13,0.76-0.3,1.09
	c-0.5,0.98,0.12,1.52,0.78,1.98c0.75,0.52,1.54,1.11,2.5,0.41c0.67-0.48,0.78-1.34,0.28-2.26c-0.44-0.8-1.04-1.54-1.34-2.39
	c-0.24-0.69-0.36-1.59-0.12-2.25c0.31-0.84,1.22-1.07,2.13-0.94c1.13,0.15,2.16,0.48,2.86,1.48L224.04,37.93z"/>
<path class="st0" d="M34.34,74.76c-0.27,2.49-3.26,6.23-6.13,6c-2.09-0.17-3.68-1.62-3.82-3.7c-0.18-2.81,1.28-4.94,2.88-7
	c0.12-0.15,0.68-0.13,0.9,0.01c0.34,0.22,0.56,0.62,0.91,1.04c-0.23,0.08-0.36,0.16-0.5,0.17c-0.67,0.04-1.42-0.48-2,0.28
	c-0.76,1.01-1.32,2.1-1.1,3.42c0.29,1.74,1.48,2.62,3.01,3.24c1.45,0.59,2.73,0.17,3.75-0.79C33.09,76.64,33.7,75.6,34.34,74.76z"/>
<path class="st0" d="M109.33,21.28c-0.7,0.18-1.37,0.36-1.99,0.51c0.29-0.91,0.62-1.76,0.83-2.63c0.52-2.13,0.97-4.27,1.5-6.4
	c0.06-0.26,0.35-0.59,0.59-0.64c0.21-0.05,0.58,0.19,0.74,0.4c1.33,1.78,2.6,3.61,3.94,5.39c0.45,0.6,1.03,1.11,1.66,1.78
	c-0.94,0.16-1.99,0.35-3.04,0.51c-0.04,0.01-0.14-0.19-0.18-0.3c-0.17-0.5-0.26-1.04-0.51-1.5c-0.28-0.53-0.74-0.81-1.4-0.56
	c-0.29,0.11-0.62,0.11-0.94,0.16C108.78,18.28,108.19,19.86,109.33,21.28z M110.17,14.84c-0.12,0-0.23,0-0.35,0
	c-0.14,0.86-0.28,1.72-0.39,2.59c-0.01,0.09,0.22,0.32,0.29,0.31c0.61-0.13,1.21-0.3,1.81-0.46c-0.15-0.41-0.24-0.85-0.46-1.22
	C110.83,15.61,110.47,15.24,110.17,14.84z"/>
<path class="st0" d="M149.96,17.8c1.76-2.2,1.22-4.86-2.5-9.04c1.29,0.13,2.46,0.25,3.63,0.37c-0.2,1.58,1.01,2.52,1.66,3.7
	c0.05,0.08,0.61,0.04,0.75-0.11c0.59-0.64,1.16-1.32,1.63-2.05c0.17-0.26,0.03-0.71,0.03-1.27c0.67,0.1,1.47,0.23,2.53,0.39
	c-2.79,1.41-5.97,5.59-4.16,8.24C152.34,17.96,151.27,17.89,149.96,17.8z"/>
<path class="st0" d="M102.11,18.72c-0.87,1.24-0.05,3.69,1.4,4.18c-1.12,0.37-2.25,0.73-3.29,1.08c-0.01-2.72-1.41-4.97-2.07-7.41
	c-0.08-0.29-0.56-0.46-0.95-0.76c0.89-0.33,1.82-0.72,2.77-1.02c1.06-0.33,2.14-0.61,3.22-0.87c0.36-0.09,1.02-0.21,1.07-0.1
	c0.18,0.42,0.18,0.93,0.11,1.53c-1.02-1.55-2.2-0.8-3.32-0.46c-0.22,0.06-0.46,0.21-0.58,0.39c-0.44,0.66,0.84,3.28,1.67,3.47
	L102.11,18.72z"/>
<path class="st0" d="M77.63,31.77c0.2,0.33,0.43,0.64,0.6,0.99c0.26,0.54,0.16,0.94-0.43,1.27c-1.8,1.01-3.56,2.08-5.41,3.17
	c0.26-1.71-1-2.74-1.77-3.93c-0.79-1.21-1.2-2.78-2.85-3.47c1.06-0.66,2.06-1.28,2.89-1.79c0.26,0.71,0.41,1.42,0.76,2.02
	c0.9,1.59,1.9,3.12,2.82,4.7c0.32,0.55,0.67,0.62,1.16,0.27c0.03-0.02,0.07-0.04,0.1-0.06c1.29-0.63,2.38-1.37,1.81-3.19
	C77.4,31.76,77.52,31.77,77.63,31.77z"/>
<path class="st0" d="M65.41,31.46c-0.28,0.57-0.3,1.06,0.11,1.64c1.11,1.54,2.1,3.15,3.2,4.69c0.28,0.4,0.8,0.62,1.34,1.03
	c-0.87,0.51-1.93,1.12-2.98,1.73c0,0,0.02,0.02,0.02,0.02c-0.11-0.52-0.13-1.07-0.34-1.54c-0.2-0.46-0.59-0.83-0.89-1.25
	c-0.82-1.13-0.82-1.12-1.92-0.37c-0.29,0.2-0.6,0.37-0.9,0.55c0,0,0.02,0.02,0.02,0.02c0.32-0.36,0.6-0.77,0.98-1.06
	c0.55-0.43,0.66-0.89,0.23-1.41c-0.58-0.7-0.79-1.79-2.02-1.81c-0.02-0.09-0.04-0.17-0.06-0.26c1.08-0.66,2.16-1.32,3.24-1.97
	L65.41,31.46z"/>
<path class="st0" d="M55.81,49.42c-0.07,0.21-0.09,0.49-0.23,0.62c-2.15,1.98-5.71,1.39-6.92-1.24c-0.78-1.69-0.38-3.42,0.77-4.82
	c0.95-1.16,2.11-2.15,3.22-3.17c0.22-0.2,0.8-0.37,0.95-0.24c0.34,0.29,0.51,0.77,0.75,1.17c-0.17,0.09-0.43,0.29-0.48,0.25
	c-1.17-1.03-1.98-0.21-2.75,0.55c-0.91,0.91-1.51,2.02-1.14,3.35c0.61,2.2,3.04,4.55,5.86,3.55L55.81,49.42z"/>
<path class="st0" d="M63.05,37.96c-0.08,0.09-0.16,0.18-0.25,0.26c-1.49,1.34-1.5,1.35-0.21,2.94c0.47,0.58,1.05,1.08,1.66,1.7
	c-0.68,0.54-1.56,1.23-2.49,1.96c-0.06-1.57-4.08-6.63-5.5-6.82c1.11-0.86,2.12-1.65,3.32-2.58c-0.41,0.99,0.54,3.09,1.34,3.29
	c0.29,0.07,0.67-0.12,0.99-0.23c0.39-0.14,0.77-0.33,1.16-0.5C63.07,37.98,63.05,37.96,63.05,37.96z"/>
<path class="st0" d="M198.1,21.87c-0.74-0.02-1.02,0.5-1.28,1.06c-0.75,1.63-1.53,3.24-2.24,4.88c-0.21,0.48-0.25,1.04-0.38,1.66
	c-0.86-0.4-1.9-0.87-3-1.37c1.51-0.87,1.73-2.45,2.3-3.76c0.57-1.3,1.78-2.51,1.08-4.43c1.24,0.71,2.38,1.35,3.51,1.99L198.1,21.87z
	"/>
<path class="st0" d="M139.41,17.29c0.53-1.33,0.27-7.77-0.34-8.56c1.15,0,2.26,0,3.29,0c-0.09,0.72-0.22,1.42-0.26,2.13
	c-0.07,1.52-0.11,3.03-0.13,4.55c-0.02,1.62,0.01,1.64,1.64,1.88C142.25,17.29,140.89,17.29,139.41,17.29z"/>
<path class="st0" d="M79.81,32.64c0.52-0.45,0.65-0.93,0.29-1.58c-0.91-1.63-1.75-3.3-2.68-4.91c-0.27-0.47-0.74-0.84-1.26-1.41
	c1.15-0.46,2.3-0.92,3.46-1.38l0-0.02c-0.49,0.4-0.61,0.79-0.26,1.43c0.88,1.59,1.62,3.27,2.5,4.87c0.3,0.55,0.85,0.97,1.36,1.52
	c-1.02,0.44-2.21,0.95-3.39,1.46C79.81,32.62,79.81,32.64,79.81,32.64z"/>
<path class="st0" d="M133.01,17.51c0.82-0.98,0.61-7.16-0.38-8.61c0.67-0.05,1.25-0.12,1.83-0.14c0.59-0.02,1.18-0.01,1.51-0.01
	c-0.13,0.68-0.4,1.35-0.37,2.02c0.07,2.06,0.26,4.12,0.35,6.17c0.01,0.18-0.35,0.52-0.56,0.54
	C134.61,17.55,133.82,17.51,133.01,17.51z"/>
<path class="st0" d="M57.04,48.75c0.68-1.28-0.55-2.93-2.16-2.88l0.02,0.02c0.82-0.87,1.63-1.73,2.34-2.49
	c0.57,0.87,1.01,1.65,1.56,2.34c0.49,0.61,0.55,1.12-0.07,1.63c-0.56,0.46-1.14,0.91-1.71,1.36C57.02,48.73,57.04,48.75,57.04,48.75
	z"/>
<path class="st0" d="M224.57,49.64c-0.66-0.1-2.06-1.22-1.87-1.62c0.25-0.53,0.85-0.89,1.3-1.33c0.02,0.27,0.14,0.58,0.04,0.79
	c-0.4,0.88-0.31,1.6,0.51,2.18L224.57,49.64z"/>
<path class="st0" d="M224.02,37.95c0.66,0.54,1.56,0.96,1.92,1.65c0.49,0.96-0.59,0.98-1.28,1.29c0.35-1.14,0.26-2.15-0.62-2.96
	L224.02,37.95z"/>
<path class="st0" d="M146.22,15.42c0.28,1.92,0.04,2.23-1.41,1.93C145.27,16.72,145.72,16.11,146.22,15.42z"/>
<path class="st0" d="M102.12,18.74c0.59-0.41,1.18-0.83,1.88-1.31c0.12,0.45,0.29,1.06,0.43,1.6c-0.81-0.11-1.57-0.2-2.32-0.3
	C102.11,18.72,102.12,18.74,102.12,18.74z"/>
<path class="st0" d="M55.82,49.44c0.41-0.23,0.81-0.46,1.22-0.69l-0.02-0.02c-0.27,0.47-0.38,1.2-1.21,0.69
	C55.81,49.42,55.82,49.44,55.82,49.44z"/>
<path class="st0" d="M45.04,48.28c0.02-0.07,0.03-0.14,0.05-0.21c-0.02,0.07-0.05,0.13-0.07,0.2L45.04,48.28z"/>
<path class="st0" d="M54.88,45.87c-0.06,0.02-0.12,0.05-0.17,0.07c0.02-0.02,0.05-0.05,0.07-0.06c0.04-0.01,0.08,0,0.11,0
	L54.88,45.87z"/>
<path class="st0" d="M43.36,49.94c-0.05,0.03-0.1,0.07-0.16,0.1c0.02-0.03,0.03-0.07,0.06-0.08c0.03-0.01,0.08,0,0.12,0L43.36,49.94
	z"/>
<path class="st0" d="M198.09,21.89c0.06,0.01,0.12,0.02,0.19,0.02c-0.06-0.01-0.11-0.03-0.17-0.04L198.09,21.89z"/>
<polygon class="st0" points="207.47,36.76 207.45,36.72 207.45,36.78 "/>
<polygon class="st0" points="79.81,32.62 79.8,32.68 79.81,32.64 "/>
<path class="st0" d="M40.22,53.3c0.02-0.03,0.04-0.06,0.06-0.09c-0.03,0.02-0.05,0.04-0.08,0.07L40.22,53.3z"/>
<path class="st0" d="M65.43,31.48c0.01-0.03,0.02-0.06,0.03-0.09c-0.02,0.02-0.03,0.05-0.05,0.07
	C65.41,31.46,65.43,31.48,65.43,31.48z"/>
<polygon class="st0" points="87.51,28.85 87.52,28.8 87.49,28.83 "/>
<polygon class="st0" points="79.61,23.36 79.61,23.3 79.6,23.34 "/>
<path class="st0" d="M67.09,40.55l0.02,0.02L67.09,40.55z"/>
<path class="st0" d="M91.35,18.06l0-0.02L91.35,18.06z"/>
<path class="st0" d="M126.85,18.01l0.02,0.02L126.85,18.01z"/>
<path d="M70.95,106.32c3.82,0.14,7.41,0.84,10.73,2.75c2.82,1.62,4.9,3.93,6.34,6.81c0.45,0.89,0.69,0.7,1.38,0.27
	c1.06-0.66,2.22-1.31,3.42-1.58c4.83-1.09,9.66-1.1,14.41,0.51c0.83,0.28,1.41,0.19,1.91-0.76c1.82-3.41,4.8-5.16,8.56-5.86
	c3.21-0.6,6.39-1.41,9.58-2.15c3.76-0.87,7.52-1.77,11.28-2.65c1.51-0.35,3.02-0.73,4.54-1.04c0.69-0.14,1.42-0.12,2.13-0.18
	c0.27-0.02,0.59,0.01,0.81-0.11c2.77-1.43,5.87-1.72,8.83-2.46c3.12-0.77,6.3-1.34,9.4-2.18c1.44-0.39,2.74-1.27,4.13-1.86
	c3.24-1.39,6.64-2.21,10.13-2.73c2.47-0.37,4.89-1.09,7.37-1.44c2.36-0.34,4.76-0.45,7.14-0.57c1.34-0.07,1.44-0.13,0.9-1.32
	c-1.38-3.01-2.76-6.01-4.12-9.02c-0.43-0.95-0.41-0.98,0.62-0.91c3.94,0.28,7.89,0.55,11.83,0.86c0.71,0.06,1.44,0.2,2.1,0.44
	c0.83,0.31,1.25-0.05,1.64-0.69c0.6-0.99,1.15-2.02,1.87-2.92c0.68-0.86,1.53-1.58,2.32-2.34c2.64-2.52,6.04-2.92,9.42-3.22
	c2.06-0.19,4.16-0.17,6.23,0.01c5.26,0.44,9.86,2.43,13.62,6.21c3.27,3.29,5.07,7.36,6.52,11.67c0.49,1.47,0.39,2.58-0.49,3.85
	c-1.33,1.93-2.38,4.06-3.72,5.99c-0.63,0.9-0.28,1.17,0.35,1.7c2.06,1.75,4.19,3.46,6.08,5.39c3.42,3.49,5.5,7.75,6.63,12.51
	c0.91,3.85,1.02,7.66-0.01,11.49c-1.49,5.58-4.81,9.85-9.57,12.96c-1.95,1.28-4.08,2.42-6.28,3.16c-5.49,1.87-11.13,2.42-16.83,0.86
	c-0.99-0.27-1.96-0.66-2.9-1.08c-0.78-0.35-1.05-0.22-1.29,0.66c-1.13,4.25-2.55,8.42-5.31,11.92c-1.68,2.12-3.71,3.93-6.33,4.94
	c-1.48,0.58-2.9,1.31-4.33,2.01c-0.97,0.48-1.09,0.41-1.26-0.64c-0.34-2.21-0.75-4.4-1.07-6.61c-0.13-0.89-0.55-1.12-1.37-1.02
	c-3.44,0.41-6.69,1.46-9.84,2.86c-7.14,3.17-13.51,7.62-19.83,12.15c-7.61,5.45-15.23,10.88-22.86,16.3
	c-5.73,4.08-11.74,7.68-18.01,10.86c-5.13,2.6-10.47,4.73-16.07,6.1c-5.03,1.24-10.13,1.81-15.31,1.3
	c-2.54-0.25-5.11-0.52-7.29-2.04c-2.34-1.64-4.28-3.69-5.92-6.04c-2.54-3.62-4.44-7.57-6.03-11.67c-0.3-0.78-0.52-1.59-0.73-2.4
	c-0.15-0.57-0.39-0.78-1.02-0.63c-4.97,1.17-9.93,2.32-14.91,3.45c-3.3,0.75-6.6,1.45-9.9,2.2c-4.46,1.02-8.91,2.07-13.37,3.1
	c-0.19,0.05-0.39,0.14-0.58,0.14c-0.3,0.01-0.6-0.05-0.89-0.07c0.06-0.26,0.07-0.55,0.19-0.79c2.08-4.39,4.18-8.77,6.26-13.16
	c1.54-3.24,3.09-6.47,4.56-9.74c0.4-0.89,1-1.22,1.88-1.42c2.44-0.55,4.86-1.2,7.31-1.75c0.71-0.16,0.81-0.46,0.65-1.08
	c-0.71-2.9-1.39-5.81-2.09-8.72c-0.05-0.19-0.06-0.39-0.09-0.59c-0.36-2.04-0.4-2.01-2.47-1.66c-7.49,1.28-14.49,0.29-20.49-4.78
	c-4.38-3.7-6.7-8.55-6.86-14.22c-0.25-8.49,3.57-15,10.5-19.76c3.79-2.61,8.12-3.8,12.55-4.78c5.34-1.18,10.64-2.52,15.98-3.67
	C66.04,106.91,68.51,106.68,70.95,106.32z M211.32,118.82c-1.73,0.89-3.43,1.85-5.21,2.64c-2.52,1.13-5.1,2.1-7.96,1.75
	c-1.7-0.21-2.78-1.44-2.81-3.15c-0.01-0.61,0.19-0.81,0.77-0.94c1.95-0.42,3.87-0.94,5.83-1.35c2.02-0.42,3.82-0.97,4.7-3.2
	c0.73-1.85,2.27-3.32,1.53-5.7c-1.31-4.23-3.78-7.3-7.88-9.02c-3.8-1.6-7.77-1.61-11.77-1.13c-0.99,0.12-1.88,0.41-2.3,1.53
	c-1.06,2.82-2.8,5.18-5.05,7.15c-0.63,0.55-0.76,0.99-0.41,1.82c1.88,4.47,2.91,9.17,3.52,13.97c0.06,0.47,0.31,1.01,0.65,1.34
	c0.7,0.69,1.47,1.36,2.31,1.88c3.16,1.98,6.63,3.04,10.32,3.49c3.79,0.46,7.56,0.61,11.35,0.12c0.75-0.1,0.86-0.29,0.79-1.04
	c-0.15-1.58-0.33-3.21-0.07-4.75c0.32-1.86,1.1-3.64,1.68-5.45l0.04-0.02L211.32,118.82z M169.31,130.8
	c-0.44,0.22-0.88,0.41-1.31,0.65c-1.81,1.01-3.53,0.4-4.04-1.58c-0.69-2.66-1.27-5.35-1.87-8.04c-0.16-0.73-0.43-1.55-0.24-2.21
	c0.46-1.59,0.99-3.21,1.81-4.64c1.1-1.92,2.64-3.49,4.92-4.1c0.79-0.21,1.24-0.01,1.42,0.78c0.26,1.13,0.53,2.26,0.79,3.39
	c0.81,3.54,1.62,7.08,2.42,10.62c0.94,4.16,1.9,8.33,1.4,12.65c-0.03,0.24,0.12,0.5,0.18,0.74c0.21-0.1,0.43-0.18,0.61-0.31
	c2.86-2.2,4.97-5.01,6.64-8.18c0.2-0.38,0.24-0.94,0.15-1.38c-0.99-4.54-2.06-9.07-3.05-13.62c-0.99-4.56-2.33-9.08-1.62-13.84
	c0.09-0.62-0.15-0.82-0.74-0.64c-1.86,0.56-3.78,0.97-5.58,1.69c-4.07,1.63-7.7,4-10.9,7.01c-0.19,0.18-0.44,0.3-0.79,0.54
	c-0.25-0.92-0.52-1.71-0.67-2.52c-0.17-0.84-0.49-1.14-1.4-0.87c-1.37,0.4-2.8,0.62-4.19,0.96c-1.2,0.29-2.47,0.45-3.55,0.99
	c-2.15,1.08-3.1,4.88-2.04,7.13c0.77-0.71,1.5-1.55,2.39-2.17c1.29-0.89,1.6-0.7,1.96,0.87c0.65,2.88,1.29,5.76,1.95,8.64
	c0.67,2.87,1.46,5.72,2.02,8.61c0.52,2.66,1.44,5.3,0.93,8.1c-0.23,1.25-0.06,1.35,1.11,0.88c0.07-0.03,0.14-0.08,0.21-0.11
	c2.59-0.96,5.16-1.98,8.01-1.67c0.62,0.07,0.89-0.25,1.03-0.75c0.69-2.46,1.37-4.92,2.05-7.37c0.02-0.03,0.07-0.06,0.06-0.08
	C169.36,130.91,169.33,130.85,169.31,130.8z M114.94,123.6c1.06-0.89,1.97-1.74,2.96-2.48c0.75-0.56,1.27-0.21,1.48,0.64
	c0.25,1,0.46,2.01,0.69,3.02c1,4.4,1.95,8.81,3.05,13.18c0.35,1.4,0.82,2.91,1.68,4.03c3,3.85,7.15,4.74,11.79,4.14
	c1.2-0.16,1.82-0.74,2.37-1.83c0.54-1.07,1.47-1.97,2.34-2.83c0.67-0.67,0.98-0.52,1.14,0.41c0.56,3.3-0.17,6.25-2.51,8.73
	c-2.46,2.6-5.59,4.13-8.9,5.19c-5.08,1.62-10.26,2.92-15.35,4.48c-3.92,1.19-7.82,2.46-11.66,3.89c-4.09,1.53-7.78,3.85-11.28,6.42
	c-2.8,2.05-5.46,4.28-7.44,7.19c-1.36,2.01-2.34,4.14-1.45,6.61c1.58,4.37,3.62,8.51,6.51,12.18c1.05,1.34,2.13,2.75,3.95,3.1
	c2.86,0.56,5.76,0.72,8.66,0.43c4.99-0.49,9.79-1.72,14.47-3.55c5.78-2.26,11.31-5.04,16.47-8.44c7.16-4.7,14.15-9.64,21.17-14.54
	c5.71-3.98,11.32-8.12,17.06-12.07c5.66-3.9,11.64-7.22,18.21-9.38c3.25-1.07,6.54-1.86,9.99-1.62c2.47,0.17,4.73,0.86,5.94,3.34
	c0.13,0.27,0.35,0.5,0.52,0.75c0.24-0.25,0.53-0.46,0.71-0.74c1.41-2.21,2.25-4.68,2.92-7.18c0.83-3.1,1.39-6.24,0.88-9.48
	c-0.11-0.68-0.39-1.08-1.07-1.25c-5.43-1.34-10.92-1.52-16.41-0.68c-4.74,0.73-9.31,2.2-13.7,4.13c-5.33,2.34-10.48,5.07-15.31,8.35
	c-5.83,3.96-11.66,7.93-17.47,11.92c-3.94,2.71-7.82,5.51-11.79,8.18c-5.78,3.9-11.7,7.6-18.13,10.35
	c-3.32,1.42-6.78,2.58-10.25,3.56c-2.29,0.65-4.72,0.8-7.09,1.11c-2.55,0.33-5.08,0.31-7.59-0.41c-2.32-0.67-3.13-2.43-1.88-4.5
	c0.62-1.01,1.33-2.01,2.18-2.82c5.08-4.89,11.26-7.86,17.88-10.05c6.34-2.1,12.97-3,19.45-4.51c5.11-1.18,10.12-2.61,14.58-5.46
	c3.57-2.28,5.87-5.43,6.21-9.82c0.23-2.96-0.37-5.8-1.04-8.64c-0.8-3.37-1.56-6.75-2.35-10.13c-0.58-2.52-1.22-5.03-1.75-7.56
	c-0.64-3.06-1.51-6.15,0.27-9.23c-0.29,0-0.45-0.03-0.6,0c-2.42,0.53-4.83,1.06-7.25,1.61c-1.12,0.26-2.3,0.41-3.33,0.88
	c-2.33,1.05-3.41,4.87-2.33,7.3c0.82-0.75,1.6-1.66,2.57-2.29c1.09-0.72,1.51-0.43,1.79,0.87c0.69,3.16,1.36,6.32,2.09,9.46
	c0.76,3.3,1.56,6.6,2.36,9.89c0.13,0.55,0.04,0.86-0.55,1.11c-4.08,1.71-7.54,0.42-9.44-3.57c-1.39-2.91-1.75-6.11-2.51-9.2
	c-0.86-3.53-1.65-7.07-2.44-10.61c-0.15-0.69-0.44-0.93-1.16-0.76c-2.41,0.56-4.84,1-7.23,1.64c-0.75,0.2-1.55,0.74-2.02,1.37
	C114.61,119.3,114.46,121.44,114.94,123.6z M51.55,137.28c0.82-0.14,1.4-0.23,1.98-0.35c2.19-0.45,3.7,0.59,4.2,1.91
	c0.74,1.96,1.36,3.98,1.87,6.01c0.63,2.51,1.06,5.06,1.64,7.58c0.71,3.09,1.48,6.17,2.21,9.26c0.72,3.02,1.41,6.04,2.12,9.06
	c0.24,1.03,0.03,1.35-1.02,1.6c-3.76,0.89-7.51,1.79-11.26,2.71c-0.35,0.09-0.81,0.31-0.96,0.6c-1.12,2.24-2.18,4.52-3.26,6.78
	c-0.25,0.53-0.01,0.65,0.48,0.55c2.18-0.48,4.36-0.94,6.52-1.44c5.15-1.2,10.3-2.43,15.45-3.65c2.98-0.71,5.99-1.29,8.93-2.15
	c4.64-1.35,8.58-3.83,11.37-7.88c2.59-3.77,3.27-7.9,1.99-12.31c-1.11-3.83-3.58-6.7-6.52-9.24c-2.78-2.41-5.89-4.34-9.15-6.01
	c-1.1-0.56-1.12-0.69-0.42-1.67c0.51-0.71,1.01-1.44,1.42-2.21c2.57-4.87,4.12-9.91,2.74-15.5c-0.56-2.27-1.75-4-3.68-5.22
	c-2.89-1.83-6.13-2.05-9.38-1.56c-3.38,0.51-6.72,1.31-10.07,2.05c-3.43,0.76-6.83,1.64-10.26,2.38c-3.18,0.68-6.29,1.53-9.01,3.36
	c-4.92,3.32-7.8,7.77-7.33,13.96c0.34,4.57,2.64,7.89,6.62,9.98c4.03,2.12,8.33,2.33,12.7,1.27c0.33-0.08,0.68-0.49,0.84-0.83
	c0.61-1.34,1.15-2.71,1.69-4.07c0.12-0.3,0.14-0.65,0.21-0.97c-0.3,0.06-0.61,0.08-0.89,0.18c-3.26,1.23-6.51,1.26-9.63-0.33
	c-4.59-2.34-5.9-8.44-2.21-12.07c2.06-2.03,4.58-3.16,7.29-3.86c3.82-0.99,7.68-1.82,11.53-2.7c2.6-0.6,5.2-1.26,7.82-1.75
	c0.9-0.17,1.94-0.12,2.8,0.17c2.26,0.76,2.94,2.64,2.93,4.83c-0.04,4.82-1.92,8.99-4.69,12.82c-0.18,0.24-0.45,0.41-0.68,0.62
	c-0.18-0.29-0.39-0.57-0.54-0.88c-0.07-0.13,0-0.32-0.04-0.47c-0.96-4.26-2.98-7.62-7.48-8.94c-0.97-0.28-1.63-0.14-2.3,0.66
	c-1.87,2.23-3.82,4.39-5.73,6.58C52.14,136.41,51.92,136.76,51.55,137.28z M226.25,118.09c-0.03,0-0.05,0-0.08,0
	c0-1.2-0.02-2.4,0.01-3.6c0.01-0.69-0.24-0.92-0.94-0.79c-2.84,0.5-5.47,1.46-7.72,3.31c-3.72,3.04-5.38,8.18-3.61,13.56
	c1.96,5.96,6.24,9.49,12.25,10.39c6.39,0.96,12.28-0.82,17.21-5.16c2.51-2.2,4.11-5.02,4.57-8.32c0.64-4.57-0.57-8.77-2.99-12.65
	c-2.35-3.77-5.78-6.44-9.35-8.96c-3.87-2.73-7.89-5.27-11.13-8.79c-2.27-2.47-3.94-5.3-5-8.48c-0.46-1.39-0.26-1.63,1.12-2.01
	c4.98-1.36,8.27,1.11,10.15,5.46c0.83,1.92,1.34,3.99,2.01,5.98c0.12,0.36,0.35,0.69,0.53,1.03c0.25-0.27,0.56-0.52,0.75-0.83
	c0.97-1.6,1.76-3.34,2.91-4.79c1.45-1.82,1.4-3.4,0.39-5.42c-2.52-5.05-6.43-7.95-12.04-8.64c-2.98-0.37-5.88,0.13-8.8,0.6
	c-1.04,0.17-1.77,0.58-2.31,1.46c-1.18,1.9-2.32,3.83-3.62,5.63c-0.74,1.02-0.69,1.98-0.36,3.04c0.09,0.3,0.23,0.59,0.33,0.89
	c1.71,5.36,4.54,10.02,8.97,13.54c2.71,2.15,5.6,4.09,8.49,5.99c4.82,3.18,8.67,7.07,10.45,12.75c0.94,2.99,0.34,6.13-1.87,8.13
	c-2.5,2.26-5.52,3.15-8.82,2.86c-2.25-0.2-4.38-0.87-5.86-2.83c-1.45-1.93-1.66-4.06-0.85-6.24c0.75-2.01,2.32-2.97,4.51-2.8
	c0.62,0.05,0.73-0.35,0.72-0.84C226.25,120.41,226.25,119.25,226.25,118.09z M121.55,142.21c-0.11,0.07-0.28,0.17-0.44,0.28
	c-1.71,1.17-3.06,0.7-3.57-1.33c-0.71-2.85-1.41-5.72-1.98-8.6c-0.44-2.23-1.35-4.23-2.92-5.78c-5.33-5.26-11.74-6.56-18.86-4.7
	c-0.54,0.14-1.16,0.66-1.4,1.16c-1.1,2.31-2.24,4.58-3.98,6.5c-0.25,0.28-0.18,0.85-0.25,1.29c0.38-0.06,0.83-0.02,1.14-0.2
	c1.94-1.18,4.09-1.78,6.29-2.12c0.91-0.14,1.93-0.04,2.81,0.23c1.31,0.39,1.32,0.77,0.25,1.59c-2,1.53-3.84,3.23-5.3,5.31
	c-2.52,3.58-3.24,7.44-1.57,11.54c1.77,4.35,7.1,7.26,11.9,6.75c2.84-0.3,5.08-1.51,6.57-4c0.17-0.28,0.38-0.53,0.57-0.79
	c0.1,0.28,0.2,0.57,0.3,0.86c0.09,0.27,0.21,0.53,0.24,0.8c0.09,0.93,0.62,1.06,1.41,0.87c2.56-0.62,5.12-1.24,7.69-1.8
	c0.88-0.19,1.15-0.62,1.13-1.49C121.52,146.46,121.55,144.35,121.55,142.21z M202.11,92.16c-0.2,1.43-0.37,2.81-0.61,4.18
	c-0.1,0.56-0.01,0.85,0.57,1.09c2.91,1.18,4.98,3.34,6.72,5.87c0.15,0.21,0.35,0.39,0.52,0.59c0.2-0.23,0.46-0.44,0.58-0.7
	c0.15-0.32,0.19-0.69,0.25-1.04c0.6-3.6-0.24-6.88-2.31-9.84c-1.32-1.89-3.01-3.39-5.36-3.94c-0.91-0.21-1.03-0.09-0.87,0.76
	C201.8,90.13,201.95,91.15,202.11,92.16z"/>
<path d="M117.51,263.84c-1.18,0.01-1.36-0.15-1.22-1.28c0.11-0.87,0.3-1.72,0.46-2.58c0.11-0.56,0.45-0.8,1.03-0.71
	c1.17,0.19,1.93,1.08,1.87,2.24C119.58,262.99,118.81,263.83,117.51,263.84z"/>
<path d="M107.19,259.79c-0.21,1.84-0.42,3.54-1.57,4.93c-1.23,1.48-3.62,1.81-5.07,0.65c-0.22-0.18-0.32-0.72-0.23-1.03
	c0.7-2.49,1.46-4.96,2.2-7.43c0.22-0.74,0.61-0.96,1.42-0.76C106.14,256.68,107.21,257.86,107.19,259.79z"/>
<path d="M176.73,257.69c0.01-1.62,0.73-2.74,2.12-3.26c1.52-0.57,2.85-0.29,3.91,0.9c1.28,1.45,1.93,3.2,2.15,5.09
	c0.22,1.9-0.59,3.13-2.28,3.73c-1.65,0.59-3.35,0.09-4.31-1.41C177.33,261.22,176.72,259.54,176.73,257.69z"/>
<path d="M129.27,9.63l-0.02,0.02L129.27,9.63z"/>
<polygon points="118.95,12.75 118.91,12.71 118.92,12.76 "/>
<path d="M202.8,247.75c0.01-0.04,0.08-0.24,0.15-0.45c0.21,0.07,0.44,0.11,0.62,0.22c0.33,0.22,0.65,0.45,0.93,0.73
	c0.35,0.35,0.64,0.75,0.96,1.13c-0.64,0.37-1.28,0.77-1.95,1.08c-0.07,0.03-0.47-0.38-0.52-0.62
	C202.87,249.22,202.86,248.58,202.8,247.75z"/>
<path d="M36.74,69.35c-1.84,0-4.39-1.68-4.98-3.24c-0.56-1.48,0.11-2.61,1.1-3.65c0.88-0.93,1.93-1.25,3.14-0.83
	c1.35,0.47,2.44,1.3,3.31,2.44c0.78,1.03,0.84,2.14,0.28,3.26C38.99,68.54,38.01,69.28,36.74,69.35z"/>
<path d="M167.78,17.47c-0.03,1.1-0.67,1.89-1.65,2.05c-1.32,0.21-1.81-0.31-1.52-1.6c0.14-0.62,0.17-1.27,0.37-1.87
	c0.09-0.27,0.45-0.59,0.72-0.62C166.68,15.33,167.81,16.49,167.78,17.47z"/>
<path d="M166.4,11.28c0.28,0.14,0.55,0.28,0.84,0.4c1.12,0.51,1.43,1.22,1.01,2.4c-0.35,0.98-1.23,1.41-2.3,1.08
	c-0.2-0.06-0.44-0.22-0.53-0.4c-0.34-0.73,0.32-2.9,1.01-3.47C166.43,11.3,166.4,11.28,166.4,11.28z"/>
<path d="M90.87,18.5l-0.02,0.02L90.87,18.5z"/>
<path d="M21.03,89.92c0.28,0,0.56,0,0.83,0c0.52,0.01,0.77,0.27,0.55,0.76c-0.27,0.6-0.61,1.16-0.92,1.74
	c-0.41-0.39-0.82-0.78-1.22-1.17c-0.11-0.11-0.25-0.22-0.31-0.36c-0.11-0.24-0.18-0.49-0.27-0.74c0.25-0.08,0.5-0.18,0.75-0.23
	C20.63,89.89,20.83,89.92,21.03,89.92z"/>
<path d="M110.17,14.84c0.31,0.4,0.66,0.77,0.91,1.21c0.21,0.37,0.31,0.81,0.46,1.22c-0.6,0.16-1.2,0.33-1.81,0.46
	c-0.08,0.02-0.31-0.21-0.29-0.31c0.11-0.87,0.26-1.73,0.39-2.59C109.93,14.84,110.05,14.84,110.17,14.84z"/>
<path class="st0" d="M114.94,123.6c-0.47-2.16-0.32-4.3,1.07-6.17c0.46-0.62,1.27-1.16,2.02-1.37c2.38-0.64,4.82-1.08,7.23-1.64
	c0.72-0.17,1.01,0.07,1.16,0.76c0.79,3.54,1.58,7.09,2.44,10.61c0.75,3.09,1.11,6.29,2.51,9.2c1.91,3.99,5.36,5.28,9.44,3.57
	c0.59-0.25,0.68-0.57,0.55-1.11c-0.79-3.3-1.6-6.59-2.36-9.89c-0.72-3.15-1.4-6.31-2.09-9.46c-0.28-1.3-0.7-1.58-1.79-0.87
	c-0.97,0.63-1.75,1.55-2.57,2.29c-1.08-2.43,0-6.25,2.33-7.3c1.03-0.47,2.21-0.62,3.33-0.88c2.41-0.55,4.83-1.08,7.25-1.61
	c0.15-0.03,0.31,0,0.6,0c-1.78,3.08-0.92,6.16-0.27,9.23c0.53,2.53,1.17,5.04,1.75,7.56c0.78,3.38,1.55,6.76,2.35,10.13
	c0.67,2.84,1.28,5.68,1.04,8.64c-0.35,4.39-2.64,7.54-6.21,9.82c-4.46,2.85-9.47,4.27-14.58,5.46c-6.48,1.5-13.11,2.4-19.45,4.51
	c-6.61,2.19-12.79,5.16-17.88,10.05c-0.85,0.82-1.57,1.81-2.18,2.82c-1.26,2.06-0.44,3.83,1.88,4.5c2.51,0.72,5.04,0.74,7.59,0.41
	c2.38-0.31,4.81-0.46,7.09-1.11c3.48-0.98,6.93-2.14,10.25-3.56c6.43-2.75,12.35-6.45,18.13-10.35c3.96-2.67,7.84-5.47,11.79-8.18
	c5.81-3.99,11.63-7.96,17.47-11.92c4.83-3.28,9.97-6,15.31-8.35c4.39-1.93,8.96-3.4,13.7-4.13c5.49-0.85,10.99-0.66,16.41,0.68
	c0.68,0.17,0.96,0.57,1.07,1.25c0.51,3.24-0.06,6.38-0.88,9.48c-0.67,2.51-1.51,4.97-2.92,7.18c-0.18,0.28-0.47,0.5-0.71,0.74
	c-0.18-0.25-0.39-0.48-0.52-0.75c-1.21-2.48-3.47-3.17-5.94-3.34c-3.44-0.24-6.74,0.55-9.99,1.62c-6.57,2.16-12.55,5.49-18.21,9.38
	c-5.74,3.95-11.34,8.09-17.06,12.07c-7.02,4.9-14.02,9.84-21.17,14.54c-5.17,3.39-10.7,6.17-16.47,8.44
	c-4.67,1.83-9.48,3.06-14.47,3.55c-2.9,0.29-5.8,0.13-8.66-0.43c-1.82-0.36-2.89-1.76-3.95-3.1c-2.89-3.67-4.93-7.81-6.51-12.18
	c-0.9-2.48,0.08-4.61,1.45-6.61c1.98-2.91,4.64-5.14,7.44-7.19c3.51-2.57,7.2-4.89,11.28-6.42c3.84-1.43,7.74-2.7,11.66-3.89
	c5.1-1.55,10.28-2.86,15.35-4.48c3.31-1.06,6.44-2.59,8.9-5.19c2.34-2.48,3.07-5.43,2.51-8.73c-0.16-0.93-0.47-1.07-1.14-0.41
	c-0.87,0.86-1.8,1.76-2.34,2.83c-0.55,1.09-1.16,1.67-2.37,1.83c-4.64,0.6-8.8-0.28-11.79-4.14c-0.86-1.11-1.33-2.62-1.68-4.03
	c-1.09-4.37-2.04-8.78-3.05-13.18c-0.23-1.01-0.45-2.02-0.69-3.02c-0.21-0.85-0.73-1.2-1.48-0.64
	C116.91,121.86,115.99,122.71,114.94,123.6z M105.88,195.95c2.18-0.64,4.2-1.21,6.2-1.82c0.58-0.18,1.45-0.35,0.24-1.01
	c-0.11-0.06-0.12-0.36-0.13-0.55c-0.06-1.11,0.22-1.39,1.87-1.86c0.8-0.23,1.84,0.57,1.59,1.35c-0.41,1.31,0.23,0.72,0.76,0.51
	c0.7-0.29,1.42-0.53,2.12-0.82c0.26-0.11,0.48-0.31,0.55-0.35c-0.76-0.58-1.52-1.04-2.14-1.64c-1-0.98-1.88-2.07-2.85-3.07
	c-0.48-0.49-1.06-0.88-1.59-1.31c-0.24,0.73-0.57,1.44-0.71,2.18c-0.32,1.81-0.53,3.63-0.81,5.45c-0.12,0.81-0.63,1.26-1.43,1.35
	c-0.84,0.08-0.94-0.6-1.09-1.16c-0.37-1.43-0.74-2.86-1.04-4.3c-0.08-0.41,0.1-0.86,0.16-1.3c0.02-0.15,0.05-0.3,0.07-0.45
	c-0.18-0.02-0.38-0.09-0.55-0.05c-0.78,0.18-1.55,0.38-2.32,0.59c-0.53,0.15-0.53,0.26-0.17,0.77c0.45,0.63,0.66,1.47,0.77,2.25
	c0.02,0.16-0.87,0.47-1.36,0.66c-0.37,0.15-0.76,0.29-1.15,0.3c-0.24,0.01-0.68-0.22-0.7-0.38c-0.12-0.92-0.9-1.88,0.12-2.87
	c-1.1,0.06-2.11,0.2-3.09,0.42c-0.48,0.11-0.54,0.35-0.1,0.73c0.29,0.25,0.52,0.67,0.6,1.05c0.26,1.25,0.43,2.52,0.65,3.77
	c0.16,0.9,0.34,1.79-0.47,2.64c1.24-0.1,2.39-0.33,3.54-0.59c0.05-0.01,0.11-0.48,0.02-0.56c-1-0.8-0.71-2.01-0.98-3.04
	c-0.03-0.1,0.28-0.35,0.47-0.44c2.49-1.08,3.08-0.77,3.38,1.87C106.38,194.7,106.1,195.18,105.88,195.95z M128.15,186.98
	c-1.14-0.45-2.23-0.86-3.31-1.31c-0.69-0.29-1.17-0.68-0.55-1.51c0.55-0.75,0.4-1.56-0.15-2.21c-0.53-0.61-1.27-0.81-2.07-0.48
	c-1.57,0.67-3.14,1.35-4.7,2.04c-0.11,0.05-0.16,0.22-0.11,0.14c0.47,0.59,0.93,0.99,1.18,1.5c0.51,1.03,0.86,2.14,1.38,3.17
	c0.45,0.88,0.77,1.7,0.01,2.62c0.08,0.06,0.16,0.12,0.24,0.18c1.15-0.55,2.3-1.1,3.45-1.66c-1.4-0.5-1.4-1.76-1.84-2.61
	c-0.29-0.56,0.36-0.45,0.66-0.3c0.67,0.35,1.3,0.78,1.97,1.13C126,188.53,126.79,188.37,128.15,186.98z M128.74,186.6
	c0.63-0.34,1.15-0.58,1.63-0.88c1.5-0.96,3.13-1.75,4.2-3.28c1.14-1.65,1.03-3.47-0.33-5.03c-1.05-1.2-2.7-1.47-4.37-0.58
	c-1.51,0.8-2.95,1.73-4.41,2.62c-0.14,0.09-0.22,0.28-0.35,0.46C126.75,180.28,129.26,184.76,128.74,186.6z M172.16,148.81
	c-0.94,0.49-1.65,0.82-2.31,1.22c-0.47,0.28-0.83,0.55,0.06,0.89c0.8,0.31,1.32,1.73,0.96,2.16c-1.09,1.3-2.18,1.16-2.86-0.39
	c-0.11-0.24-0.07-0.55-0.2-0.77c-0.09-0.16-0.36-0.33-0.51-0.3c-0.26,0.05-0.49,0.25-0.73,0.39c-1.17,0.73-1.01,0.62-0.28,1.72
	c1.08,1.62,2.59,3.03,2.92,5.09c0.02,0.12,0.24,0.32,0.26,0.3c0.67-0.4,1.33-0.82,1.98-1.26c0.02-0.02-0.11-0.32-0.22-0.46
	c-0.49-0.61-1.05-1.17-1.45-1.84c-0.14-0.24,0.01-0.8,0.21-1.07c0.22-0.3,0.65-0.45,0.99-0.65c0.52-0.32,0.9-0.19,1.15,0.36
	c0.37,0.84,0.75,1.67,1.18,2.64c0.67-0.37,1.48-0.83,2.43-1.36C174.17,154.75,171.79,150.39,172.16,148.81z M149.09,173.55
	c0.92-0.64,1.98-1.33,2.99-2.09c1.4-1.05,1.86-2.52,1.41-4.14c-0.68-2.42-2.74-4.03-5.39-2.49c-0.93,0.54-1.79,1.18-2.65,1.83
	c-0.43,0.33-1.71,0.77,0.01,1.16c0.25,0.06,0.45,0.44,0.63,0.69c0.78,1.1,1.57,2.2,2.3,3.33
	C148.68,172.3,148.81,172.85,149.09,173.55z M156.89,158.52c1.55,0.43,4.53,4.53,4.57,6.17c0.65-0.43,1.25-0.79,1.81-1.2
	c0.38-0.27,0.52-0.5-0.04-0.86c-0.74-0.47-1.27-1.18-1.52-2.31c1.07,0.48,1.93,0.9,2.8,1.25c1.19,0.48,2.14,0.05,2.6-1.02
	c-1.03-0.38-2.06-0.76-3.1-1.14c-0.58-0.21-0.8-0.54-0.55-1.19c0.35-0.9,0.01-1.82-0.74-2.19c-0.61-0.3-1.62-0.31-2.23,0
	C159.26,156.66,158.2,157.59,156.89,158.52z M174.06,149.83c0.01,2.22,1.85,4.25,3.88,4.27c2.36,0.02,4.33-1.77,4.31-3.92
	c-0.02-2.32-1.78-4.28-3.84-4.25C176.07,145.95,174.05,147.77,174.06,149.83z M186.38,142.79c1.47,1.81,2.12,3.67,2.3,5.68
	c0.03,0.37-0.56,1.04-0.98,1.14c-0.52,0.13-1.42,0-1.68-0.36c-1.17-1.61-2.13-3.36-2.03-5.62c-0.86,0.29-1.68,0.55-2.47,0.87
	c-0.11,0.04-0.14,0.58-0.12,0.59c0.97,0.31,0.98,1.28,1.36,1.98c0.49,0.91,0.85,1.9,1.44,2.73c0.8,1.13,2.06,1.28,3.79,0.63
	c1.17-0.43,1.68-1.22,1.54-2.64c-0.07-0.74-0.41-1.45-0.54-2.18c-0.19-1.07-1.3-2-0.23-3.43
	C187.77,142.44,187.08,142.61,186.38,142.79z M156.76,162.08c-0.43,0.57-0.74,0.98-1.05,1.38c-0.36-0.33-0.72-0.66-1.07-1
	c-0.11-0.11-0.3-0.25-0.29-0.37c0.02-0.34,0.01-0.78,0.21-0.97c0.41-0.39,0.91-0.85,1.55-0.25c0.1,0.09,0.4-0.03,0.61-0.05
	c-0.17-0.39-0.28-0.82-0.52-1.17c-0.1-0.14-0.54-0.23-0.69-0.13c-1.31,0.88-2.58,1.8-3.94,2.76c1.49,0.68,4.44,4.95,4.32,6.37
	c1.25-0.85,2.38-1.62,3.5-2.4c1.19-0.83,1.12-1.55-0.29-2.32c-0.02,0.3-0.09,0.57-0.06,0.83c0.12,0.94-0.6,1.29-1.23,1.53
	c-0.21,0.08-0.7-0.54-1.05-0.86c-0.14-0.13-0.3-0.29-0.36-0.47c-0.1-0.28-0.25-0.7-0.13-0.84c0.19-0.22,0.59-0.28,0.91-0.35
	c0.19-0.04,0.41,0.02,0.87,0.06C157.53,163.11,157.14,162.58,156.76,162.08z M200.48,144.47c0.1-0.03,0.19-0.06,0.29-0.09
	c-0.07-0.41-0.14-0.83-0.23-1.24c-0.16-0.68-0.36-0.95-0.95-0.24c-0.49,0.59-1,0.38-1.27-0.29c-0.12-0.29-0.21-0.62-0.19-0.93
	c0.02-0.33,0.15-0.92,0.3-0.94c0.49-0.06,1.03,0.02,1.52,0.16c0.23,0.07,0.39,0.4,0.65,0.69c0.4-1.76,0.29-1.91-1.18-1.75
	c-0.36,0.04-0.72,0.04-1.07,0.12c-1.05,0.22-2.09,0.48-3.38,0.77c1.4,0.83,2.75,5.53,2.22,7.14c1.63-0.26,3.2-0.49,4.74-0.81
	c0.18-0.04,0.32-0.63,0.33-0.97c0.01-0.27-0.2-0.55-0.31-0.83c-0.18,0.25-0.3,0.59-0.54,0.75c-0.43,0.28-0.92,0.55-1.41,0.62
	c-0.21,0.03-0.56-0.41-0.72-0.7c-0.19-0.34-0.32-0.75-0.34-1.13c-0.02-0.3,0.18-0.62,0.28-0.93c0.3,0.11,0.61,0.22,0.91,0.34
	C200.24,144.28,200.35,144.39,200.48,144.47z M192.89,141.04c-0.17,0.01-0.29,0.02-0.41,0.03c-1.55,0.12-2.67,1.01-2.73,2.18
	c-0.07,1.25,0.82,2.12,2.43,2.47c0.53,0.12,1.1,0.26,1.55,0.56c0.8,0.54,0.64,1.49-0.25,1.87c-0.7,0.29-1.12-0.01-1.43-0.65
	c-0.08-0.17-0.35-0.25-0.53-0.37c-0.06,0.21-0.18,0.42-0.17,0.63c0.01,1.09,0.3,1.39,1.36,1.26c0.58-0.07,1.17-0.26,1.71-0.49
	c0.88-0.38,1.4-1.1,1.32-2.07c-0.08-0.96-0.5-1.75-1.54-2.04c-0.69-0.19-1.41-0.33-2.04-0.65c-0.35-0.18-0.64-0.66-0.74-1.05
	c-0.06-0.21,0.31-0.75,0.53-0.77c0.4-0.05,0.85,0.13,1.27,0.28c0.24,0.08,0.43,0.28,0.65,0.43c0.07-0.29,0.19-0.57,0.19-0.86
	C194.04,140.92,193.39,141.05,192.89,141.04z M140.27,179.12c1.65,0.05,2.76-0.86,3.67-2.09c0.12-0.16,0.07-0.43,0.1-0.65
	c-0.2,0.05-0.42,0.08-0.61,0.17c-0.14,0.06-0.23,0.22-0.35,0.32c-1.48,1.23-2.93,1.11-4.15-0.4c-0.39-0.49-0.7-1.06-0.95-1.64
	c-0.47-1.13-0.19-2.05,0.83-2.67c0.27-0.17,0.71-0.12,1.06-0.08c0.31,0.04,0.6,0.21,0.9,0.33c-0.08-0.37-0.09-0.77-0.24-1.11
	c-0.25-0.57-0.65-0.74-1.23-0.31c-0.44,0.33-0.98,0.54-1.41,0.89c-1.38,1.12-1.97,2.86-1.48,4.24
	C137.1,178.04,138.49,179.13,140.27,179.12z M143.26,168.29c-0.44,0.29-1.04,0.65-1.61,1.05c-0.21,0.15-0.37,0.39-0.55,0.58
	c0.22,0.11,0.45,0.19,0.65,0.33c0.22,0.15,0.43,0.33,0.59,0.54c0.8,1.08,1.62,2.15,2.36,3.28c0.37,0.56,0.57,1.23,0.9,1.97
	c0.7-0.5,1.48-1.07,2.14-1.54C145.67,172.77,144.35,170.71,143.26,168.29z"/>
<path class="st0" d="M51.55,137.28c0.37-0.52,0.59-0.87,0.86-1.18c1.91-2.2,3.86-4.36,5.73-6.58c0.67-0.8,1.33-0.94,2.3-0.66
	c4.5,1.32,6.52,4.68,7.48,8.94c0.03,0.15-0.03,0.34,0.04,0.47c0.15,0.31,0.36,0.59,0.54,0.88c0.23-0.2,0.51-0.37,0.68-0.62
	c2.77-3.83,4.66-7.99,4.69-12.82c0.02-2.19-0.67-4.07-2.93-4.83c-0.86-0.29-1.9-0.34-2.8-0.17c-2.62,0.5-5.22,1.15-7.82,1.75
	c-3.85,0.89-7.71,1.72-11.53,2.7c-2.71,0.7-5.23,1.83-7.29,3.86c-3.7,3.64-2.38,9.73,2.21,12.07c3.12,1.59,6.37,1.55,9.63,0.33
	c0.28-0.11,0.6-0.12,0.89-0.18c-0.07,0.33-0.09,0.67-0.21,0.97c-0.54,1.37-1.08,2.74-1.69,4.07c-0.16,0.34-0.5,0.75-0.84,0.83
	c-4.38,1.06-8.68,0.85-12.7-1.27c-3.98-2.09-6.28-5.41-6.62-9.98c-0.47-6.19,2.41-10.63,7.33-13.96c2.72-1.83,5.84-2.68,9.01-3.36
	c3.43-0.74,6.83-1.62,10.26-2.38c3.34-0.74,6.69-1.54,10.07-2.05c3.24-0.49,6.48-0.27,9.38,1.56c1.93,1.22,3.12,2.95,3.68,5.22
	c1.38,5.6-0.17,10.64-2.74,15.5c-0.41,0.77-0.91,1.49-1.42,2.21c-0.7,0.98-0.67,1.1,0.42,1.67c3.27,1.67,6.37,3.6,9.15,6.01
	c2.94,2.54,5.41,5.42,6.52,9.24c1.28,4.42,0.6,8.54-1.99,12.31c-2.78,4.05-6.73,6.52-11.37,7.88c-2.94,0.86-5.95,1.44-8.93,2.15
	c-5.15,1.22-10.3,2.45-15.45,3.65c-2.17,0.51-4.35,0.96-6.52,1.44c-0.48,0.11-0.73-0.01-0.48-0.55c1.08-2.27,2.13-4.54,3.26-6.78
	c0.15-0.29,0.6-0.52,0.96-0.6c3.75-0.92,7.5-1.82,11.26-2.71c1.05-0.25,1.26-0.57,1.02-1.6c-0.71-3.02-1.4-6.04-2.12-9.06
	c-0.73-3.09-1.51-6.17-2.21-9.26c-0.58-2.52-1.01-5.07-1.64-7.58c-0.51-2.03-1.13-4.05-1.87-6.01c-0.49-1.32-2.01-2.35-4.2-1.91
	C52.95,137.04,52.36,137.13,51.55,137.28z M84.49,161.62c0.08-1.6-0.64-3.66-1.83-5.33c-3.1-4.35-7.66-6.85-12.06-9.56
	c-0.15-0.09-0.5-0.15-0.53-0.09c-0.11,0.17-0.17,0.43-0.12,0.62c0.28,1.24,0.62,2.47,0.9,3.71c1.38,5.96,2.75,11.91,4.11,17.88
	c0.17,0.73,0.56,0.95,1.21,0.69c1.47-0.6,3.01-1.09,4.35-1.9C82.77,166.3,84.34,164.4,84.49,161.62z"/>
<path class="st0" d="M226.25,118.09c0,1.16,0,2.32,0,3.48c0,0.49-0.1,0.89-0.72,0.84c-2.19-0.17-3.77,0.79-4.51,2.8
	c-0.81,2.17-0.6,4.3,0.85,6.24c1.47,1.96,3.61,2.64,5.86,2.83c3.3,0.29,6.31-0.6,8.82-2.86c2.22-2.01,2.81-5.14,1.87-8.13
	c-1.78-5.68-5.63-9.57-10.45-12.75c-2.89-1.91-5.78-3.84-8.49-5.99c-4.43-3.52-7.25-8.18-8.97-13.54c-0.1-0.3-0.23-0.59-0.33-0.89
	c-0.33-1.06-0.37-2.02,0.36-3.04c1.3-1.81,2.44-3.74,3.62-5.63c0.55-0.88,1.27-1.29,2.31-1.46c2.92-0.47,5.82-0.97,8.8-0.6
	c5.61,0.69,9.52,3.59,12.04,8.64c1.01,2.03,1.06,3.61-0.39,5.42c-1.15,1.45-1.94,3.19-2.91,4.79c-0.19,0.31-0.49,0.55-0.75,0.83
	c-0.18-0.34-0.41-0.67-0.53-1.03c-0.67-1.99-1.18-4.06-2.01-5.98c-1.88-4.35-5.17-6.82-10.15-5.46c-1.38,0.38-1.58,0.62-1.12,2.01
	c1.06,3.18,2.73,6.01,5,8.48c3.24,3.53,7.26,6.07,11.13,8.79c3.57,2.51,6.99,5.18,9.35,8.96c2.42,3.88,3.63,8.08,2.99,12.65
	c-0.47,3.3-2.06,6.12-4.57,8.32c-4.94,4.33-10.82,6.11-17.21,5.16c-6.02-0.9-10.29-4.43-12.25-10.39
	c-1.77-5.38-0.12-10.52,3.61-13.56c2.26-1.84,4.89-2.8,7.72-3.31c0.71-0.12,0.95,0.1,0.94,0.79c-0.02,1.2-0.01,2.4-0.01,3.6
	C226.2,118.09,226.22,118.09,226.25,118.09z"/>
<path class="st0" d="M169.31,131.05c-0.68,2.46-1.36,4.92-2.05,7.37c-0.14,0.5-0.41,0.82-1.03,0.75c-2.84-0.31-5.42,0.71-8.01,1.67
	c-0.07,0.03-0.14,0.08-0.21,0.11c-1.17,0.47-1.34,0.37-1.11-0.88c0.51-2.8-0.41-5.43-0.93-8.1c-0.57-2.89-1.36-5.74-2.02-8.61
	c-0.67-2.88-1.3-5.76-1.95-8.64c-0.35-1.56-0.67-1.75-1.96-0.87c-0.89,0.61-1.62,1.45-2.39,2.17c-1.06-2.25-0.11-6.05,2.04-7.13
	c1.08-0.54,2.35-0.7,3.55-0.99c1.39-0.34,2.82-0.56,4.19-0.96c0.91-0.27,1.24,0.03,1.4,0.87c0.16,0.81,0.42,1.6,0.67,2.52
	c0.35-0.24,0.6-0.36,0.79-0.54c3.2-3.01,6.83-5.38,10.9-7.01c1.8-0.72,3.72-1.14,5.58-1.69c0.59-0.17,0.83,0.02,0.74,0.64
	c-0.71,4.76,0.64,9.28,1.62,13.84c0.98,4.55,2.05,9.07,3.05,13.62c0.09,0.43,0.06,0.99-0.15,1.38c-1.66,3.17-3.78,5.98-6.64,8.18
	c-0.18,0.14-0.41,0.21-0.61,0.31c-0.06-0.25-0.21-0.51-0.18-0.74c0.5-4.33-0.46-8.49-1.4-12.65c-0.8-3.54-1.61-7.08-2.42-10.62
	c-0.26-1.13-0.52-2.26-0.79-3.39c-0.18-0.79-0.63-1-1.42-0.78c-2.28,0.61-3.82,2.18-4.92,4.1c-0.82,1.43-1.35,3.05-1.81,4.64
	c-0.19,0.66,0.08,1.48,0.24,2.21c0.59,2.69,1.17,5.38,1.87,8.04c0.52,1.98,2.23,2.6,4.04,1.58c0.42-0.24,0.87-0.43,1.31-0.65
	l0.02-0.01c0,0.09,0,0.18,0,0.28L169.31,131.05z"/>
<path class="st0" d="M121.55,142.21c0,2.14-0.04,4.25,0.02,6.36c0.02,0.87-0.25,1.3-1.13,1.49c-2.57,0.56-5.13,1.18-7.69,1.8
	c-0.79,0.19-1.32,0.06-1.41-0.87c-0.02-0.27-0.15-0.54-0.24-0.8c-0.09-0.29-0.2-0.57-0.3-0.86c-0.19,0.26-0.41,0.51-0.57,0.79
	c-1.49,2.49-3.73,3.7-6.57,4c-4.79,0.51-10.13-2.4-11.9-6.75c-1.67-4.09-0.94-7.96,1.57-11.54c1.46-2.07,3.3-3.77,5.3-5.31
	c1.07-0.82,1.06-1.2-0.25-1.59c-0.89-0.27-1.9-0.37-2.81-0.23c-2.2,0.34-4.35,0.94-6.29,2.12c-0.31,0.19-0.75,0.14-1.14,0.2
	c0.08-0.44,0-1.01,0.25-1.29c1.74-1.92,2.87-4.19,3.98-6.5c0.24-0.5,0.86-1.02,1.4-1.16c7.13-1.86,13.53-0.56,18.86,4.7
	c1.57,1.55,2.48,3.56,2.92,5.78c0.57,2.88,1.26,5.75,1.98,8.6c0.51,2.03,1.86,2.49,3.57,1.33
	C121.27,142.38,121.44,142.28,121.55,142.21z M106.08,146.44c0.55-0.25,1.44-0.57,2.24-1.04c1.17-0.7,1.43-1.67,1.03-3.05
	c-0.68-2.33-1.09-4.73-1.68-7.08c-0.37-1.48-0.88-2.93-2.41-3.64c-0.3-0.14-0.8-0.17-1.08-0.02c-3.97,2.21-6.3,6.42-3.92,10.94
	C101.4,144.7,103.18,146.09,106.08,146.44z"/>
<path class="st0" d="M211.3,118.8c-0.58,1.81-1.35,3.59-1.68,5.45c-0.27,1.54-0.08,3.17,0.07,4.75c0.07,0.75-0.04,0.94-0.79,1.04
	c-3.79,0.49-7.56,0.34-11.35-0.12c-3.7-0.45-7.17-1.51-10.32-3.49c-0.84-0.52-1.6-1.18-2.31-1.88c-0.34-0.33-0.58-0.87-0.65-1.34
	c-0.61-4.8-1.65-9.5-3.52-13.97c-0.35-0.83-0.22-1.26,0.41-1.82c2.25-1.97,3.99-4.34,5.05-7.15c0.42-1.12,1.31-1.42,2.3-1.53
	c4-0.48,7.97-0.47,11.77,1.13c4.1,1.72,6.56,4.79,7.88,9.02c0.74,2.38-0.8,3.85-1.53,5.7c-0.87,2.23-2.68,2.77-4.7,3.2
	c-1.95,0.41-3.88,0.93-5.83,1.35c-0.58,0.12-0.78,0.33-0.77,0.94c0.02,1.7,1.11,2.94,2.81,3.15c2.86,0.35,5.44-0.62,7.96-1.75
	c1.77-0.8,3.47-1.76,5.21-2.64L211.3,118.8z M192.06,105.14c-2.82,0.09-3.94,0.54-2.97,3.23c0.66,1.82,1.01,3.76,1.46,5.65
	c0.29,1.22,0.42,1.34,1.54,1.06c2.36-0.58,4.71-1.15,7.06-1.74c2.36-0.58,2.66-1.37,1.32-3.49c-0.02-0.03-0.05-0.06-0.07-0.1
	C198.35,106.63,195.25,105.44,192.06,105.14z"/>
<path class="st0" d="M202.11,92.16c-0.16-1-0.31-2.02-0.49-3.03c-0.16-0.85-0.03-0.97,0.87-0.76c2.35,0.54,4.03,2.04,5.36,3.94
	c2.06,2.96,2.91,6.24,2.31,9.84c-0.06,0.35-0.1,0.72-0.25,1.04c-0.12,0.27-0.38,0.47-0.58,0.7c-0.18-0.2-0.37-0.37-0.52-0.59
	c-1.74-2.53-3.81-4.69-6.72-5.87c-0.58-0.23-0.66-0.53-0.57-1.09C201.74,94.96,201.91,93.58,202.11,92.16z"/>
<polygon class="st0" points="211.32,118.82 211.34,118.78 211.3,118.8 "/>
<path class="st0" d="M169.31,130.8c0.02,0.06,0.05,0.12,0.07,0.18c0,0.02-0.04,0.05-0.06,0.08l0.02,0.01c0-0.09,0-0.18,0-0.28
	L169.31,130.8z"/>
<path d="M105.88,195.95c0.21-0.77,0.5-1.25,0.45-1.69c-0.3-2.65-0.89-2.96-3.38-1.87c-0.19,0.08-0.5,0.34-0.47,0.44
	c0.27,1.03-0.02,2.24,0.98,3.04c0.09,0.07,0.03,0.54-0.02,0.56c-1.15,0.27-2.3,0.49-3.54,0.59c0.8-0.85,0.63-1.74,0.47-2.64
	c-0.23-1.26-0.39-2.52-0.65-3.77c-0.08-0.38-0.31-0.8-0.6-1.05c-0.44-0.37-0.39-0.62,0.1-0.73c0.99-0.22,1.99-0.36,3.09-0.42
	c-1.01,0.99-0.23,1.95-0.12,2.87c0.02,0.16,0.46,0.38,0.7,0.38c0.39-0.01,0.78-0.15,1.15-0.3c0.49-0.19,1.38-0.5,1.36-0.66
	c-0.11-0.78-0.32-1.62-0.77-2.25c-0.36-0.5-0.36-0.62,0.17-0.77c0.77-0.21,1.54-0.41,2.32-0.59c0.17-0.04,0.37,0.03,0.55,0.05
	c-0.02,0.15-0.05,0.3-0.07,0.45c-0.06,0.43-0.24,0.89-0.16,1.3c0.3,1.44,0.67,2.88,1.04,4.3c0.15,0.57,0.25,1.25,1.09,1.16
	c0.8-0.08,1.31-0.54,1.43-1.35c0.27-1.82,0.49-3.64,0.81-5.45c0.13-0.75,0.46-1.46,0.71-2.18c0.53,0.43,1.12,0.82,1.59,1.31
	c0.97,1,1.85,2.09,2.85,3.07c0.62,0.6,1.38,1.07,2.14,1.64c-0.06,0.04-0.29,0.24-0.55,0.35c-0.7,0.29-1.42,0.53-2.12,0.82
	c-0.52,0.21-1.17,0.8-0.76-0.51c0.24-0.78-0.79-1.57-1.59-1.35c-1.65,0.47-1.94,0.75-1.87,1.86c0.01,0.19,0.02,0.49,0.13,0.55
	c1.2,0.66,0.34,0.84-0.24,1.01C110.08,194.74,108.06,195.31,105.88,195.95z M113.06,188.47c-0.16,0.04-0.31,0.09-0.47,0.13
	c0.04,0.58,0.08,1.16,0.12,1.73c0.36-0.12,0.72-0.24,1.08-0.36C113.55,189.47,113.3,188.97,113.06,188.47z"/>
<path d="M128.15,186.98c-1.36,1.39-2.15,1.55-3.83,0.69c-0.67-0.34-1.3-0.78-1.97-1.13c-0.29-0.15-0.94-0.26-0.66,0.3
	c0.44,0.86,0.44,2.11,1.84,2.61c-1.15,0.55-2.3,1.1-3.45,1.66c-0.08-0.06-0.16-0.12-0.24-0.18c0.77-0.92,0.44-1.74-0.01-2.62
	c-0.52-1.03-0.87-2.14-1.38-3.17c-0.25-0.51-0.71-0.91-1.18-1.5c-0.06,0.08,0-0.09,0.11-0.14c1.56-0.69,3.13-1.37,4.7-2.04
	c0.79-0.34,1.54-0.13,2.07,0.48c0.56,0.65,0.7,1.46,0.15,2.21c-0.61,0.83-0.13,1.22,0.55,1.51
	C125.92,186.12,127.01,186.53,128.15,186.98z M121,182.64c-0.2,0.12-0.78,0.36-0.76,0.45c0.2,0.79,0.5,1.56,0.8,2.32
	c0.05,0.12,0.37,0.25,0.48,0.19c0.58-0.31,1.09-0.72,0.95-1.49C122.34,183.36,122.02,182.75,121,182.64z"/>
<path d="M128.74,186.6c0.52-1.83-1.99-6.32-3.65-6.69c0.13-0.18,0.21-0.37,0.35-0.46c1.46-0.89,2.91-1.82,4.41-2.62
	c1.68-0.89,3.33-0.62,4.37,0.58c1.37,1.57,1.48,3.38,0.33,5.03c-1.06,1.53-2.69,2.32-4.2,3.28
	C129.89,186.02,129.38,186.26,128.74,186.6z M133.53,181.33c-0.12-1-0.75-2-1.62-2.85c-0.96-0.95-2.1-0.96-3.26-0.2
	c-0.53,0.34-0.61,0.66-0.3,1.17c0.87,1.43,1.72,2.87,2.62,4.28c0.12,0.19,0.53,0.36,0.74,0.3
	C132.68,183.75,133.54,182.54,133.53,181.33z"/>
<path d="M172.16,148.81c-0.37,1.59,2,5.94,3.56,6.67c-0.95,0.53-1.76,0.99-2.43,1.36c-0.43-0.96-0.81-1.8-1.18-2.64
	c-0.25-0.56-0.63-0.68-1.15-0.36c-0.34,0.21-0.77,0.36-0.99,0.65c-0.2,0.28-0.35,0.83-0.21,1.07c0.39,0.66,0.96,1.23,1.45,1.84
	c0.11,0.14,0.24,0.44,0.22,0.46c-0.65,0.44-1.31,0.86-1.98,1.26c-0.02,0.01-0.24-0.19-0.26-0.3c-0.33-2.07-1.84-3.47-2.92-5.09
	c-0.73-1.09-0.89-0.99,0.28-1.72c0.24-0.15,0.47-0.34,0.73-0.39c0.15-0.03,0.42,0.15,0.51,0.3c0.13,0.22,0.09,0.53,0.2,0.77
	c0.68,1.55,1.77,1.69,2.86,0.39c0.36-0.43-0.16-1.85-0.96-2.16c-0.89-0.35-0.53-0.61-0.06-0.89
	C170.52,149.62,171.22,149.29,172.16,148.81z"/>
<path d="M149.09,173.55c-0.28-0.7-0.41-1.25-0.7-1.7c-0.73-1.14-1.52-2.23-2.3-3.33c-0.18-0.26-0.38-0.64-0.63-0.69
	c-1.73-0.39-0.44-0.84-0.01-1.16c0.85-0.65,1.72-1.29,2.65-1.83c2.66-1.54,4.72,0.07,5.39,2.49c0.45,1.62-0.01,3.09-1.41,4.14
	C151.06,172.22,150.01,172.91,149.09,173.55z M148.78,165.4c-0.52,0.31-1.17,0.54-1.52,0.99c-0.16,0.2,0.19,0.92,0.45,1.31
	c0.65,1,1.37,1.95,2.07,2.91c0.77,1.06,1.43,1.07,2.09-0.09c0.27-0.46,0.44-1.24,0.23-1.67c-0.49-1.01-1.19-1.94-1.91-2.82
	C149.92,165.72,149.35,165.65,148.78,165.4z"/>
<path d="M156.89,158.52c1.31-0.93,2.38-1.86,3.6-2.48c0.61-0.31,1.62-0.3,2.23,0c0.76,0.37,1.09,1.29,0.74,2.19
	c-0.25,0.65-0.03,0.98,0.55,1.19c1.03,0.38,2.07,0.76,3.1,1.14c-0.46,1.08-1.41,1.5-2.6,1.02c-0.88-0.35-1.73-0.77-2.8-1.25
	c0.25,1.13,0.78,1.84,1.52,2.31c0.57,0.36,0.42,0.59,0.04,0.86c-0.56,0.41-1.16,0.77-1.81,1.2
	C161.41,163.05,158.44,158.95,156.89,158.52z M162.33,158.53c-0.55-0.55-0.96-1.12-1.52-1.45c-0.23-0.14-0.78,0.18-1.13,0.39
	c-0.06,0.04,0.09,0.55,0.23,0.8c0.18,0.34,0.41,0.68,0.68,0.95c0.22,0.21,0.66,0.52,0.78,0.45
	C161.71,159.45,161.92,159.06,162.33,158.53z"/>
<path d="M174.06,149.83c-0.01-2.06,2.01-3.88,4.35-3.91c2.05-0.03,3.82,1.93,3.84,4.25c0.02,2.15-1.95,3.95-4.31,3.92
	C175.91,154.08,174.07,152.05,174.06,149.83z M177.91,146.93c-1.63,0-2.51,0.9-2.26,2.08c0.32,1.5,0.92,2.94,2.3,3.74
	c0.51,0.29,1.4,0.28,1.96,0.04c0.66-0.28,1.03-1.03,0.73-1.82c-0.38-0.99-0.74-2.02-1.32-2.91
	C178.95,147.5,178.22,147.17,177.91,146.93z"/>
<path d="M186.38,142.79c0.7-0.18,1.39-0.35,2.39-0.6c-1.06,1.43,0.04,2.37,0.23,3.43c0.13,0.74,0.47,1.45,0.54,2.18
	c0.14,1.42-0.37,2.21-1.54,2.64c-1.73,0.64-2.99,0.5-3.79-0.63c-0.59-0.83-0.95-1.83-1.44-2.73c-0.38-0.7-0.39-1.67-1.36-1.98
	c-0.03-0.01,0.01-0.55,0.12-0.59c0.8-0.32,1.62-0.58,2.47-0.87c-0.1,2.26,0.86,4.01,2.03,5.62c0.26,0.36,1.16,0.48,1.68,0.36
	c0.41-0.1,1.01-0.77,0.98-1.14C188.51,146.46,187.85,144.6,186.38,142.79z"/>
<path d="M156.76,162.08c0.38,0.51,0.76,1.03,1.3,1.76c-0.47-0.04-0.68-0.1-0.87-0.06c-0.32,0.07-0.72,0.13-0.91,0.35
	c-0.12,0.14,0.04,0.57,0.13,0.84c0.06,0.18,0.22,0.33,0.36,0.47c0.35,0.32,0.84,0.94,1.05,0.86c0.62-0.24,1.34-0.6,1.23-1.53
	c-0.03-0.26,0.04-0.53,0.06-0.83c1.41,0.77,1.48,1.49,0.29,2.32c-1.12,0.78-2.25,1.55-3.5,2.4c0.12-1.42-2.83-5.7-4.32-6.37
	c1.36-0.96,2.63-1.88,3.94-2.76c0.15-0.1,0.59-0.01,0.69,0.13c0.24,0.34,0.35,0.77,0.52,1.17c-0.21,0.02-0.51,0.14-0.61,0.05
	c-0.65-0.6-1.14-0.14-1.55,0.25c-0.2,0.19-0.19,0.64-0.21,0.97c-0.01,0.12,0.18,0.26,0.29,0.37c0.35,0.34,0.71,0.67,1.07,1
	C156.02,163.05,156.33,162.65,156.76,162.08z"/>
<path d="M200.48,144.47c-0.12-0.09-0.24-0.2-0.37-0.25c-0.3-0.13-0.6-0.23-0.91-0.34c-0.1,0.31-0.29,0.62-0.28,0.93
	c0.02,0.39,0.15,0.8,0.34,1.13c0.17,0.29,0.52,0.73,0.72,0.7c0.49-0.07,0.98-0.34,1.41-0.62c0.24-0.15,0.36-0.49,0.54-0.75
	c0.11,0.28,0.32,0.56,0.31,0.83c-0.01,0.34-0.15,0.93-0.33,0.97c-1.55,0.32-3.11,0.55-4.74,0.81c0.53-1.61-0.82-6.31-2.22-7.14
	c1.29-0.3,2.33-0.55,3.38-0.77c0.35-0.07,0.71-0.08,1.07-0.12c1.47-0.16,1.58-0.01,1.18,1.75c-0.26-0.29-0.42-0.62-0.65-0.69
	c-0.49-0.14-1.02-0.22-1.52-0.16c-0.14,0.02-0.27,0.61-0.3,0.94c-0.02,0.31,0.07,0.64,0.19,0.93c0.27,0.67,0.78,0.88,1.27,0.29
	c0.59-0.71,0.8-0.44,0.95,0.24c0.09,0.41,0.15,0.83,0.23,1.24C200.67,144.42,200.57,144.44,200.48,144.47z"/>
<path d="M192.89,141.04c0.5,0.01,1.15-0.13,1.15,0.74c0,0.29-0.12,0.57-0.19,0.86c-0.21-0.15-0.41-0.35-0.65-0.43
	c-0.41-0.14-0.86-0.33-1.27-0.28c-0.22,0.03-0.59,0.56-0.53,0.77c0.1,0.4,0.39,0.88,0.74,1.05c0.63,0.32,1.35,0.45,2.04,0.65
	c1.04,0.29,1.46,1.09,1.54,2.04c0.08,0.96-0.43,1.69-1.32,2.07c-0.54,0.23-1.13,0.42-1.71,0.49c-1.06,0.13-1.35-0.17-1.36-1.26
	c0-0.21,0.11-0.42,0.17-0.63c0.18,0.12,0.45,0.2,0.53,0.37c0.31,0.64,0.73,0.94,1.43,0.65c0.9-0.37,1.05-1.32,0.25-1.87
	c-0.44-0.3-1.01-0.44-1.55-0.56c-1.61-0.35-2.5-1.23-2.43-2.47c0.06-1.17,1.18-2.06,2.73-2.18
	C192.6,141.06,192.72,141.05,192.89,141.04z"/>
<path d="M140.27,179.12c-1.78,0-3.17-1.09-3.85-3.01c-0.49-1.38,0.1-3.12,1.48-4.24c0.43-0.35,0.96-0.55,1.41-0.89
	c0.57-0.43,0.98-0.26,1.23,0.31c0.15,0.34,0.17,0.74,0.24,1.11c-0.3-0.11-0.59-0.29-0.9-0.33c-0.35-0.04-0.79-0.08-1.06,0.08
	c-1.02,0.62-1.3,1.55-0.83,2.67c0.24,0.58,0.55,1.15,0.95,1.64c1.22,1.51,2.67,1.63,4.15,0.4c0.12-0.1,0.21-0.26,0.35-0.32
	c0.19-0.09,0.4-0.11,0.61-0.17c-0.03,0.22,0.02,0.49-0.1,0.65C143.03,178.27,141.92,179.18,140.27,179.12z"/>
<path d="M143.26,168.29c1.09,2.42,2.41,4.48,4.47,6.22c-0.66,0.47-1.44,1.03-2.14,1.54c-0.33-0.74-0.53-1.41-0.9-1.97
	c-0.74-1.13-1.56-2.2-2.36-3.28c-0.16-0.21-0.37-0.39-0.59-0.54c-0.2-0.14-0.43-0.22-0.65-0.33c0.18-0.2,0.34-0.43,0.55-0.58
	C142.22,168.94,142.82,168.58,143.26,168.29z"/>
<path d="M84.49,161.62c-0.15,2.78-1.72,4.68-3.97,6.02c-1.35,0.81-2.89,1.3-4.35,1.9c-0.64,0.26-1.04,0.04-1.21-0.69
	c-1.36-5.96-2.73-11.92-4.11-17.88c-0.29-1.24-0.62-2.47-0.9-3.71c-0.04-0.19,0.02-0.45,0.12-0.62c0.04-0.06,0.38,0,0.53,0.09
	c4.4,2.71,8.96,5.21,12.06,9.56C83.85,157.96,84.57,160.01,84.49,161.62z"/>
<path d="M169.33,130.78c0,0.09,0,0.18,0,0.28C169.33,130.97,169.33,130.88,169.33,130.78z"/>
<path d="M106.08,146.44c-2.9-0.35-4.68-1.74-5.82-3.89c-2.38-4.52-0.05-8.74,3.92-10.94c0.28-0.15,0.77-0.12,1.08,0.02
	c1.53,0.71,2.04,2.16,2.41,3.64c0.59,2.35,1,4.76,1.68,7.08c0.4,1.38,0.14,2.36-1.03,3.05
	C107.52,145.88,106.63,146.19,106.08,146.44z"/>
<path d="M192.06,105.14c3.19,0.3,6.29,1.48,8.35,4.63c0.02,0.03,0.05,0.06,0.07,0.1c1.34,2.12,1.04,2.91-1.32,3.49
	c-2.35,0.58-4.71,1.16-7.06,1.74c-1.12,0.27-1.25,0.16-1.54-1.06c-0.46-1.89-0.81-3.83-1.46-5.65
	C188.12,105.68,189.24,105.23,192.06,105.14z"/>
<path class="st0" d="M113.06,188.47c0.25,0.5,0.49,1.01,0.74,1.51c-0.36,0.12-0.72,0.24-1.08,0.36c-0.04-0.58-0.08-1.16-0.12-1.73
	C112.75,188.55,112.9,188.51,113.06,188.47z"/>
<path class="st0" d="M121,182.64c1.02,0.11,1.34,0.72,1.48,1.48c0.14,0.77-0.37,1.18-0.95,1.49c-0.1,0.05-0.43-0.08-0.48-0.19
	c-0.31-0.76-0.6-1.53-0.8-2.32C120.22,183,120.8,182.75,121,182.64z"/>
<path class="st0" d="M133.53,181.33c0.01,1.21-0.85,2.42-1.81,2.69c-0.21,0.06-0.61-0.11-0.74-0.3c-0.9-1.41-1.75-2.85-2.62-4.28
	c-0.31-0.51-0.23-0.82,0.3-1.17c1.16-0.76,2.29-0.75,3.26,0.2C132.78,179.33,133.41,180.33,133.53,181.33z"/>
<path class="st0" d="M148.78,165.4c0.57,0.24,1.14,0.32,1.4,0.64c0.72,0.88,1.42,1.81,1.91,2.82c0.21,0.43,0.04,1.2-0.23,1.67
	c-0.66,1.16-1.32,1.15-2.09,0.09c-0.7-0.96-1.42-1.91-2.07-2.91c-0.26-0.39-0.61-1.11-0.45-1.31
	C147.61,165.94,148.26,165.72,148.78,165.4z"/>
<path class="st0" d="M162.33,158.53c-0.42,0.52-0.63,0.92-0.96,1.13c-0.12,0.08-0.57-0.23-0.78-0.45c-0.27-0.27-0.5-0.61-0.68-0.95
	c-0.13-0.25-0.29-0.76-0.23-0.8c0.35-0.21,0.9-0.53,1.13-0.39C161.37,157.42,161.79,157.98,162.33,158.53z"/>
<path class="st0" d="M177.91,146.93c0.31,0.24,1.05,0.56,1.42,1.13c0.57,0.88,0.93,1.91,1.32,2.91c0.31,0.79-0.07,1.54-0.73,1.82
	c-0.56,0.24-1.45,0.26-1.96-0.04c-1.38-0.8-1.99-2.24-2.3-3.74C175.4,147.83,176.28,146.93,177.91,146.93z"/>
</svg>
